<svg xmlns="http://www.w3.org/2000/svg" version="1.0" preserveAspectRatio="xMidYMid meet" viewBox="135 266.12 168.33 190.91">  <g transform="translate(0.000000,765.000000) scale(0.050000,-0.050000)" fill="#ab8d3f" stroke="none"> <path d="M4493 9965 c-5 -8 -16 -348 -24 -755 l-14 -740 -103 -110 c-56 -60 -113 -113 -127 -116 -24 -7 -28 184 -28 1314 0 96 -3 104 -31 77 -25 -26 -31 -145 -40 -768 l-10 -737 -117 -119 c-65 -66 -121 -115 -126 -110 -9 11 -33 849 -33 1178 0 183 -5 224 -25 204 -19 -19 -27 -206 -31 -760 l-6 -736 -179 -178 c-192 -192 -203 -208 -134 -205 31 2 202 158 540 494 l495 492 487 -487 c363 -363 500 -487 540 -492 73 -8 68 1 -122 196 l-165 170 0 749 c0 722 -1 749 -40 784 -40 36 -40 35 -40 -687 0 -411 -8 -723 -18 -723 -10 0 -67 51 -127 112 l-109 113 -12 738 c-10 618 -17 745 -43 782 -28 40 -31 -11 -34 -566 -3 -953 8 -901 -163 -721 l-114 119 0 740 c0 664 -9 809 -47 748z"></path> <path d="M4484 8196 c-18 -18 -24 -206 -24 -721 l0 -697 -125 6 -125 6 -10 557 c-10 530 -12 555 -45 519 -30 -34 -35 -98 -40 -557 l-5 -519 -120 0 -120 0 -5 385 c-3 212 -11 385 -18 385 -51 0 -66 -86 -66 -393 -1 -178 -6 -338 -13 -355 -11 -28 -77 -32 -540 -32 -515 0 -528 -1 -528 -40 0 -40 13 -40 1355 -40 1438 0 2085 14 2005 44 -82 30 -122 33 -475 35 l-345 1 0 357 c0 330 -3 359 -40 393 -39 35 -39 33 -45 -352 l-5 -388 -125 -6 -125 -6 0 528 c0 546 -7 594 -89 594 -9 0 -13 -250 -8 -555 l7 -555 -130 0 -130 0 -5 699 c-4 680 -11 757 -61 707z"></path> <path d="M3187 6489 c-27 -70 14 -72 1281 -57 690 8 1243 22 1228 31 -20 12 -18 16 8 17 18 0 39 -9 46 -20 18 -29 50 -25 50 7 0 57 -2591 79 -2613 22z"></path> <path d="M3752 6209 c-20 -52 29 -55 770 -45 712 10 754 13 729 55 -24 38 -1484 29 -1499 -10z"></path></g> </svg>