<svg xmlns="http://www.w3.org/2000/svg" version="1.0" preserveAspectRatio="xMidYMid meet" viewBox="88.31 266.12 275.94 223.61">  <g transform="translate(0.000000,765.000000) scale(0.050000,-0.050000)" fill="#ab8d3f" stroke="none"> <path d="M4493 9965 c-5 -8 -16 -348 -24 -755 l-14 -740 -103 -110 c-56 -60 -113 -113 -127 -116 -24 -7 -28 184 -28 1314 0 96 -3 104 -31 77 -25 -26 -31 -145 -40 -768 l-10 -737 -117 -119 c-65 -66 -121 -115 -126 -110 -9 11 -33 849 -33 1178 0 183 -5 224 -25 204 -19 -19 -27 -206 -31 -760 l-6 -736 -179 -178 c-192 -192 -203 -208 -134 -205 31 2 202 158 540 494 l495 492 487 -487 c363 -363 500 -487 540 -492 73 -8 68 1 -122 196 l-165 170 0 749 c0 722 -1 749 -40 784 -40 36 -40 35 -40 -687 0 -411 -8 -723 -18 -723 -10 0 -67 51 -127 112 l-109 113 -12 738 c-10 618 -17 745 -43 782 -28 40 -31 -11 -34 -566 -3 -953 8 -901 -163 -721 l-114 119 0 740 c0 664 -9 809 -47 748z"></path> <path d="M4484 8196 c-18 -18 -24 -206 -24 -721 l0 -697 -125 6 -125 6 -10 557 c-10 530 -12 555 -45 519 -30 -34 -35 -98 -40 -557 l-5 -519 -120 0 -120 0 -5 385 c-3 212 -11 385 -18 385 -51 0 -66 -86 -66 -393 -1 -178 -6 -338 -13 -355 -11 -28 -77 -32 -540 -32 -515 0 -528 -1 -528 -40 0 -40 13 -40 1355 -40 1438 0 2085 14 2005 44 -82 30 -122 33 -475 35 l-345 1 0 357 c0 330 -3 359 -40 393 -39 35 -39 33 -45 -352 l-5 -388 -125 -6 -125 -6 0 528 c0 546 -7 594 -89 594 -9 0 -13 -250 -8 -555 l7 -555 -130 0 -130 0 -5 699 c-4 680 -11 757 -61 707z"></path> <path d="M3187 6489 c-27 -70 14 -72 1281 -57 690 8 1243 22 1228 31 -20 12 -18 16 8 17 18 0 39 -9 46 -20 18 -29 50 -25 50 7 0 57 -2591 79 -2613 22z"></path> <path d="M3752 6209 c-20 -52 29 -55 770 -45 712 10 754 13 729 55 -24 38 -1484 29 -1499 -10z"></path> <path d="M2150 6038 c-8 -22 -8 -46 -2 -53 7 -6 12 -1 12 12 0 16 59 23 190 23 212 0 209 3 143 -144 -113 -256 -293 -358 -521 -294 -215 60 -243 338 -34 338 101 0 153 -35 116 -77 -44 -49 -59 -118 -36 -158 18 -31 21 -29 22 15 3 164 61 180 177 49 75 -86 82 -89 102 -52 59 111 -1 223 -120 223 -43 0 -119 11 -168 24 -174 46 -304 -77 -254 -241 80 -268 460 -245 670 40 42 56 153 297 153 331 0 35 -439 1 -450 -36z m115 -163 c36 -27 70 -135 42 -135 -39 1 -151 160 -112 160 21 0 52 -11 70 -25z"></path> <path d="M5733 6057 c-29 -17 -32 -25 -12 -38 26 -16 6 -85 -118 -394 -32 -80 -36 -105 -16 -105 15 0 41 36 58 80 43 108 101 111 92 6 -6 -60 0 -76 29 -82 40 -8 114 48 113 84 0 12 -12 6 -27 -13 -37 -49 -78 -45 -62 6 7 22 2 54 -11 70 -14 17 -21 32 -17 34 4 3 44 23 88 45 89 45 119 110 50 110 -51 0 -169 -58 -152 -75 7 -7 23 -2 36 11 13 13 42 24 65 23 39 0 39 -2 -6 -40 -87 -72 -156 -22 -98 73 6 10 25 65 42 123 33 111 22 127 -54 82z"></path> <path d="M6555 6066 c-39 -10 -47 -39 -14 -50 13 -4 -15 -101 -70 -243 -102 -266 -99 -253 -69 -253 11 0 36 36 53 81 42 106 98 102 89 -7 -5 -66 -1 -74 41 -74 54 0 95 34 94 79 0 26 -4 25 -21 -4 -30 -53 -58 -42 -58 23 0 32 -11 63 -25 68 -14 5 16 27 67 50 87 38 130 85 103 112 -25 25 -102 10 -152 -29 -64 -50 -65 -41 -13 106 56 159 55 162 -25 141z m125 -266 c0 -21 -84 -61 -126 -59 -33 1 64 79 98 79 15 0 28 -9 28 -20z"></path> <path d="M3727 5889 c-24 -26 -35 -50 -25 -53 10 -3 -8 -69 -40 -145 -33 -77 -55 -147 -49 -155 16 -26 80 -18 106 12 19 24 16 27 -18 18 -37 -10 -40 -5 -23 37 68 175 104 237 136 239 21 1 26 5 11 11 -14 6 -25 28 -25 49 0 49 -19 45 -73 -13z"></path> <path d="M2594 5846 c-27 -7 -31 -16 -14 -36 16 -20 9 -58 -29 -152 -73 -179 -55 -196 44 -43 127 196 226 245 136 68 -56 -112 -64 -163 -26 -163 42 1 89 41 60 53 -17 7 -11 36 23 104 100 199 77 238 -70 121 l-78 -62 20 53 c29 78 26 81 -66 57z"></path> <path d="M2911 5842 c-6 -10 0 -22 14 -27 19 -6 15 -42 -17 -152 -23 -79 -39 -143 -34 -143 54 0 286 209 286 258 0 10 5 33 12 50 10 26 -2 32 -59 32 -67 0 -120 -59 -85 -95 7 -6 12 -1 12 12 0 13 18 23 40 23 63 0 47 -57 -40 -145 -99 -98 -107 -93 -67 42 38 129 -7 234 -62 145z"></path> <path d="M3280 5815 c-105 -72 -183 -266 -122 -304 49 -30 222 100 222 167 0 19 -16 6 -39 -31 -40 -67 -113 -103 -143 -73 -31 31 20 146 65 146 78 0 177 73 177 132 0 25 -103 2 -160 -37z m88 -24 c-13 -32 -84 -62 -102 -43 -19 19 37 72 76 72 24 0 33 -10 26 -29z"></path> <path d="M3536 5835 c-57 -46 -72 -96 -49 -170 26 -84 -23 -139 -90 -104 -28 16 -37 13 -37 -9 0 -42 43 -50 104 -19 78 39 100 90 74 165 -26 73 -12 122 33 122 17 0 26 -9 19 -20 -7 -11 -4 -20 7 -20 16 0 43 45 43 72 0 18 -74 6 -104 -17z"></path> <path d="M3901 5781 c-119 -119 -143 -277 -41 -265 57 6 180 117 180 163 -1 18 -18 3 -42 -33 -75 -117 -178 -109 -136 10 16 47 34 64 68 64 53 0 176 94 159 122 -27 43 -112 15 -188 -61z m109 -1 c-36 -40 -90 -54 -90 -24 0 29 47 64 87 64 38 0 38 -1 3 -40z"></path> <path d="M4200 5815 c-105 -72 -183 -266 -122 -304 47 -29 222 96 222 157 0 12 -23 -7 -52 -43 -82 -105 -166 -83 -126 33 17 49 33 62 77 62 55 0 161 79 161 119 0 36 -92 23 -160 -24z m100 -15 c0 -26 -96 -71 -113 -54 -7 7 -1 27 13 44 28 34 100 41 100 10z"></path> <path d="M4417 5839 c-18 -10 -29 -35 -24 -54 5 -19 -9 -87 -31 -150 -28 -81 -33 -115 -16 -115 14 0 40 44 59 97 46 131 116 203 196 203 52 0 61 -6 49 -35 -71 -176 -94 -248 -84 -257 16 -17 94 11 94 35 0 10 -9 14 -20 7 -28 -17 -27 -13 30 126 28 68 50 131 50 140 0 30 -176 23 -202 -8 -30 -37 -60 -36 -45 2 13 34 -8 38 -56 9z"></path> <path d="M4813 5837 c-25 -14 -30 -26 -15 -36 15 -9 7 -52 -28 -141 -58 -147 -56 -140 -30 -140 29 0 128 201 135 275 6 70 -4 76 -62 42z"></path> <path d="M4944 5829 c-24 -17 -44 -41 -44 -53 0 -13 11 -12 30 4 40 33 38 9 -10 -130 -57 -166 -15 -184 57 -24 40 89 163 221 135 145 -84 -234 -86 -271 -11 -230 31 16 37 28 21 38 -18 11 -11 45 27 130 75 171 61 194 -63 99 l-68 -51 13 51 c16 61 -18 69 -87 21z"></path> <path d="M5292 5846 c-27 -7 -31 -14 -13 -26 20 -12 13 -46 -28 -150 -59 -147 -56 -168 19 -134 30 14 50 15 50 4 0 -11 26 -20 59 -20 71 0 149 87 132 149 -6 23 -16 61 -23 86 -14 51 45 89 72 45 12 -19 22 -14 39 17 34 64 -58 58 -120 -8 -43 -45 -45 -58 -25 -131 26 -99 -9 -153 -77 -116 -22 11 -54 16 -71 9 -38 -14 -30 33 31 184 43 107 41 113 -45 91z"></path> <path d="M6021 5781 c-124 -124 -147 -304 -35 -270 51 15 174 127 174 157 0 12 -26 -8 -59 -44 -54 -59 -141 -88 -141 -47 0 67 48 143 90 143 47 0 170 88 170 122 0 52 -124 14 -199 -61z m109 -1 c-36 -40 -90 -54 -90 -24 0 29 47 64 87 64 38 0 38 -1 3 -40z"></path> <path d="M6316 5835 c-57 -46 -72 -96 -49 -170 26 -84 -23 -139 -90 -104 -28 16 -37 14 -37 -8 0 -48 51 -52 120 -10 64 39 65 42 53 147 -13 109 12 165 49 108 15 -24 21 -23 38 2 40 62 -19 87 -84 35z"></path> <path d="M6826 5847 c-13 -5 -19 -21 -14 -35 5 -13 -9 -64 -31 -113 -77 -170 -41 -227 79 -126 l62 52 -13 -53 c-13 -49 -10 -52 36 -34 37 14 57 11 80 -11 76 -77 201 69 160 188 -10 30 -15 66 -10 80 11 32 59 32 70 0 5 -15 18 -8 32 20 35 64 -53 63 -114 -1 -49 -53 -53 -90 -19 -165 44 -95 -30 -119 -179 -58 -3 1 18 58 45 125 70 171 48 217 -30 65 -50 -99 -158 -224 -181 -210 -18 11 13 99 96 274 8 16 -31 18 -69 2z"></path> </g> </svg>