<svg xmlns:dc="http://purl.org/dc/elements/1.1/" xmlns:cc="http://creativecommons.org/ns#" xmlns:rdf="http://www.w3.org/1999/02/22-rdf-syntax-ns#" xmlns:svg="http://www.w3.org/2000/svg" xmlns="http://www.w3.org/2000/svg" xmlns:sodipodi="http://sodipodi.sourceforge.net/DTD/sodipodi-0.dtd" xmlns:inkscape="http://www.inkscape.org/namespaces/inkscape" version="1.1" id="svg106" sodipodi:docname="logotest.svg" inkscape:version="1.0.2-2 (e86c870879, 2021-01-15)" viewBox="154.05 229.34 816.06 862.76">  <metadata id="metadata112">    <rdf:RDF>      <cc:Work rdf:about="">        <dc:format>image/svg+xml</dc:format>        <dc:type rdf:resource="http://purl.org/dc/dcmitype/StillImage"></dc:type>        <dc:title></dc:title>      </cc:Work>    </rdf:RDF>  </metadata>  <defs id="defs110">    <rect x="100.08675" y="1367.094" width="1489.9277" height="366.2265" id="rect939"></rect>  </defs>  <sodipodi:namedview pagecolor="#ffffff" bordercolor="#666666" borderopacity="1" objecttolerance="10" gridtolerance="10" guidetolerance="10" inkscape:pageopacity="0" inkscape:pageshadow="2" inkscape:window-width="1920" inkscape:window-height="1001" id="namedview108" showgrid="false" inkscape:zoom="0.31085732" inkscape:cx="349.3144" inkscape:cy="829.59508" inkscape:window-x="-9" inkscape:window-y="-9" inkscape:window-maximized="1" inkscape:current-layer="svg106" inkscape:document-rotation="0"></sodipodi:namedview>  <path fill="#fd731d" d="m 571.54959,241.70793 q -0.83751,34.84742 1.21984,69.64025 l 0.14566,77.8332 -0.14566,32.31672 q -0.32773,-12.65359 -0.74648,-25.30718 -0.10923,-3.07692 -1.09239,-4.7155 -1.36549,-2.31225 -3.80519,-3.40463 -5.2799,-2.38508 -5.2799,-2.38508 -4.62448,-3.45924 -6.59079,-9.17612 a 1.2016356,1.4929412 86.4 0 0 -1.18343,-0.83751 q -1.03778,-0.12743 -1.6386,-1.05597 -0.27309,-46.19014 0.27311,-92.36208 0,-0.10925 0.49157,-17.3509 0.29131,-9.95901 -0.14565,-19.8998 -0.40055,-8.86663 5.68046,-15.05687 3.71415,-1.6568 6.93672,1.18344 5.15246,4.53343 5.88073,10.57803 z m -7.22802,-1.00137 q -3.91443,-4.49703 -5.13427,1.00137 -0.63723,2.89485 -0.091,13.69137 0.0364,0.69184 -0.16386,3.55027 -0.27309,4.35138 3.91442,2.20301 a 1.8388665,1.6568007 81.9 0 0 0.91033,-1.3473 l 2.11196,-13.83701 q 0.43696,-2.98588 -1.54755,-5.26171 z" id="path2" style="stroke-width:1.82065"></path>  <path fill="#fb661b" d="m 564.32157,240.70656 q 1.98451,2.27583 1.54755,5.26171 l -2.11196,13.83701 a 1.8388665,1.6568007 81.9 0 1 -0.91033,1.3473 q -4.18751,2.14837 -3.91442,-2.20301 0.20028,-2.85843 0.16386,-3.55027 -0.5462,-10.79652 0.091,-13.69137 1.21984,-5.4984 5.13427,-1.00137 z" id="path4" style="stroke-width:1.82065"></path>  <path fill="#fbbc41" d="m 636.03736,300.87938 5.60763,6.37231 q -6.46333,0.14565 -11.83429,3.64131 l 0.38234,-12.32587 q 0.12744,-3.64132 2.65817,-1.00136 z" id="path6" style="stroke-width:1.82065"></path>  <path fill="#fd731d" d="m 494.17153,299.96904 q 1.45654,66.4541 0.76469,132.90818 -0.18207,3.75056 -1.85708,6.84569 a 0.76467719,0.72826399 34.2 0 1 -1.14701,0.18206 q -4.73373,-3.82338 -10.92397,-3.89622 -2.47609,-0.0364 -3.55028,-0.96494 -1.51116,-1.31087 -1.94811,-3.53207 0.10924,-55.76683 -0.52799,-111.51544 -0.0546,-5.553 4.06007,-9.50384 2.71279,-2.62175 2.87664,-2.80381 3.80518,-4.1329 7.70139,-8.17477 3.13155,-3.44105 4.55165,0.45516 z" id="path8" style="stroke-width:1.82065"></path>  <path fill="#fa9b20" d="m 641.64499,307.25169 7.50113,8.90302 a 1.6568007,2.8402296 13.8 0 1 0.49157,1.67501 l 0.0546,75.90331 -0.63723,-3.67774 a 0.67364418,0.72826399 71.5 0 0 -1.01956,-0.45516 q -5.62585,2.71279 -9.57667,-2.40327 a 2.5125108,2.8766429 82.3 0 0 -1.43832,-0.94673 q -1.6386,-0.43698 -2.96768,-1.47474 a 3.0769153,1.7660402 89.9 0 1 -0.85571,-1.49295 q -0.83751,-3.11332 -3.84158,-4.56985 l 0.45515,-67.81959 q 5.37095,-3.49566 11.83429,-3.64131 z" id="path10" style="stroke-width:1.82065"></path>  <path fill="#ff9121" d="m 552.43265,374.61611 q 0.60082,0.92854 1.6386,1.05597 a 1.2016356,1.4929412 86.4 0 1 1.18343,0.83751 q 1.96631,5.71688 6.59079,9.17612 0,0 5.2799,2.38508 2.4397,1.09238 3.80519,3.40463 0.98316,1.63858 1.09239,4.7155 0.41875,12.65359 0.74648,25.30718 v 30.04089 q -0.47337,5.00681 -1.12881,9.97721 -0.23669,1.83887 -0.27311,-1.23804 a 1.274462,1.274462 0 0 0 -1.49294,-1.23805 q -5.93534,1.01956 -8.86661,-5.04322 -1.01956,-2.09378 -1.56577,-1.56579 a 0.38233859,0.52799139 53.7 0 1 -0.74646,0 q -3.42284,-7.59215 -4.71551,-15.78512 -0.14566,-0.8557 -0.18207,-0.0182 -0.30951,5.86254 -1.3655,-2.38505 z" id="path12" style="stroke-width:1.82065"></path>  <path fill="#ffca4c" d="m 718.8774,383.26424 q 7.02774,5.48018 8.50247,13.40006 0.21848,1.0924 0.21848,15.11147 0.0546,45.58933 -0.0729,91.19687 0.49158,-9.81337 -1.71142,-5.26172 a 1.5475611,1.6750072 12 0 1 -1.29268,0.91033 q -6.17203,0.41876 -11.70683,-2.38506 a 2.2940316,3.1679483 62.5 0 0 -1.71143,-0.25489 q -2.65816,0.32772 -3.91442,-2.11197 l -0.0729,-117.35974 q 0,-3.64132 2.60355,-1.34729 z" id="path14" style="stroke-width:1.82065"></path>  <path fill="#fb661b" d="m 416.64783,528.46188 q -1.23804,0.091 -1.18343,-0.8011 0.29131,-4.93399 -3.45925,-6.79107 -3.5867,-1.78424 -3.75056,-1.91169 -2.87664,-1.9663 -5.64405,-4.06006 -0.18206,-0.14566 -1.01956,-1.00137 -0.98316,-1.03778 -1.71143,0.45517 -1.54755,3.20436 -1.82066,0 l -1.29266,-15.47561 q -0.61903,-50.28663 0.72826,-100.57326 0.10924,-3.82338 2.11196,-6.73644 6.00818,-8.77559 14.38322,-15.51203 1.1288,-0.78288 2.00273,-0.16385 a 1.2562553,2.1483788 9.7 0 1 0.60081,1.58397 z" id="path16" style="stroke-width:1.82065"></path>  <path fill="#feb32d" d="m 629.35554,378.71259 q 3.00409,1.45653 3.84159,4.56985 a 3.0769153,1.7660402 89.9 0 0 0.85571,1.49295 q 1.32908,1.03776 2.96768,1.47474 a 2.5125108,2.8766429 82.3 0 1 1.43832,0.94673 q 3.95082,5.11606 9.57667,2.40327 a 0.67364418,0.72826399 71.5 0 1 1.01957,0.45516 l 0.63723,3.67774 v 108.32928 q -0.61903,3.8962 -1.3837,1.6932 a 3.5320804,2.2029986 89.6 0 0 -0.94674,-1.49294 q -3.25899,-2.63995 -7.30085,-3.55027 -0.80108,-0.18208 -1.58397,-0.74648 -2.98588,-2.11197 -5.09785,0.91033 -1.43832,2.03913 -2.43968,0.54619 -0.29131,-0.45516 -0.36414,0.0729 -0.98317,7.7378 -1.0924,-0.16386 -0.091,-6.35411 0.0364,1.36549 0.0546,3.89621 -0.61903,7.7378 l 0.30952,-112.88092 z" id="path18" style="stroke-width:1.82065"></path>  <path fill="#ff9626" d="m 475.50977,431.51174 q 0.43695,2.2212 1.94811,3.53207 1.07419,0.92853 3.55028,0.96494 6.19024,0.0729 10.92397,3.89622 a 0.76467719,0.72826399 34.2 0 0 1.14701,-0.18206 q 1.67501,-3.09513 1.85708,-6.84569 l -0.45517,174.78332 q -0.23669,1.62037 -0.38234,9.10329 -0.20028,10.48702 0,0.45516 0.14565,-8.12014 -1.23804,-16.09464 a 1.0559828,0.91032994 85.5 0 0 -0.87392,-0.87388 l -0.74647,-0.0545 q -1.09241,-0.0545 -1.71143,-0.34594 -6.06279,-2.87664 -11.08782,2.05735 a 1.183429,1.5657676 21.9 0 1 -0.63723,0.38229 l -0.38233,0.091 a 1.3654949,1.4383214 4.9 0 0 -0.98316,0.87396 q -1.11061,2.82203 -1.38371,-2.42148 z" id="path20" style="stroke-width:1.82065"></path>  <path fill="#feb32d" d="m 552.43265,434.24272 q 1.05599,8.24759 1.3655,2.38506 0.0364,-0.8375 0.18207,0.0181 1.29267,8.19298 4.71551,15.78513 a 0.38233859,0.52799139 53.7 0 0 0.74646,0 q 0.54621,-0.52799 1.56577,1.56577 2.93127,6.06279 8.86661,5.04322 a 1.274462,1.274462 0 0 1 1.49294,1.23805 q 0.0364,3.07691 0.27311,1.23805 0.65544,-4.9704 1.12881,-9.97722 -0.20027,56.25839 0.47338,112.49859 0.0546,5.71692 2.27581,9.34005 2.71279,4.42415 6.8821,7.81061 -4.00545,8.64815 -12.63538,12.92664 -1.18343,0.60078 -2.38507,2.23941 l -5.42556,-3.25901 a 1.1288092,1.3654949 39.5 0 0 -1.49294,0.29135 l -37.15967,36.577 q -0.45518,-1.74783 -1.43833,-0.9103 -5.18887,-0.0181 -9.1033,3.11338 0.61904,-3.75059 3.18616,-10.39598 2.82202,-7.31913 -4.62448,-9.55845 13.34544,-13.58214 26.83654,-27.01862 0.091,-0.091 5.22528,-4.56986 8.99407,-7.86521 8.97585,-21.66583 -0.0546,-62.35764 0.0729,-124.71524 z" id="path22" style="stroke-width:1.82065"></path>  <path fill="#ffde6b" d="m 707.18875,493.86933 q 1.25626,2.43969 3.91442,2.11197 a 2.2940316,3.1679483 62.5 0 1 1.71143,0.25489 q 5.5348,2.80382 11.70683,2.38506 a 1.5475611,1.6750072 12 0 0 1.29268,-0.91033 q 2.20299,-4.55165 1.71141,5.26172 v 84.20549 q -0.74646,-2.5125 -1.14701,0.0727 -0.0181,0.14563 0.0181,0.50975 0.0181,0.56443 -0.71007,0.43699 a 1.3837016,0.91032994 81.4 0 1 -0.8375,-0.92857 q -0.41875,-1.21983 -1.80244,-1.14696 -0.72828,0.0363 -1.78425,-0.1093 l -10.57803,-1.45649 a 1.7842467,2.3122382 87.1 0 1 -1.78426,-1.23808 q -1.49294,-4.00542 -1.71142,0.21849 z" id="path24" style="stroke-width:1.82065"></path>  <path fill="#ffcb3b" d="m 649.69231,502.06231 0.45517,59.62661 -0.40054,-28.2202 a 2.0027259,2.5307174 18 0 0 -0.58262,-1.56579 q -6.22665,-6.48157 -14.98404,-4.9158 -2.47609,0.43697 -3.49565,-1.21984 -0.45518,-0.74647 -0.60083,0.0364 l -0.72826,4.0236 -0.45516,-21.39271 q 0.67363,-3.84158 0.61902,-7.7378 -0.12745,-7.71958 -0.0364,-1.36549 0.10923,7.90167 1.09239,0.16386 0.0729,-0.528 0.36413,-0.0729 1.00136,1.49295 2.43969,-0.5462 2.11196,-3.0223 5.09785,-0.91033 0.78287,0.5644 1.58398,0.74647 4.04185,0.91032 7.30083,3.55029 a 3.5320804,2.2029986 89.6 0 1 0.94675,1.49294 q 0.76468,2.203 1.38369,-1.6932 z" id="path26" style="stroke-width:1.82065"></path>  <path fill="#ff871d" d="m 396.76623,498.87615 1.29266,15.47561 q 0.27311,3.20436 1.82066,0 0.72827,-1.49295 1.71143,-0.45517 0.8375,0.85571 1.01956,1.00137 2.76741,2.09376 5.64405,4.06006 0.16386,0.12745 3.75056,1.91169 3.75056,1.85708 3.45925,6.79107 -0.0546,0.89213 1.18343,0.8011 l 0.60082,155.66635 -0.49157,-41.41994 a 2.3304447,2.4760975 21.8 0 0 -0.61903,-1.58403 q -3.38642,-3.6413 -8.42966,-3.56845 a 1.3837016,1.3108752 77.4 0 1 -1.21984,-0.81936 q -1.67501,-3.76876 -5.60762,-4.67907 a 1.274462,1.5293544 27.7 0 0 -1.40192,0.58262 q -1.52935,1.91172 -1.54755,-1.76601 0,-1.91173 -1.16523,-0.9104 z" id="path28" style="stroke-width:1.82065"></path>  <path fill="#ffd74f" d="m 650.14748,561.68892 q 0.10923,22.37592 0.091,44.75179 0,2.27585 0.38233,14.25578 0.2549,7.79245 -0.40054,14.27395 -1.43833,14.03728 8.64814,22.68542 -3.44105,2.80373 -7.41009,4.78846 -3.45926,1.71128 -5.2617,3.56838 -2.25763,2.33041 -4.24214,4.91587 l -22.23026,-21.92085 -18.66176,-18.66174 -33.68222,-33.99173 q 1.20164,-1.63863 2.38507,-2.23941 8.62993,-4.27848 12.63538,-12.92664 18.02453,17.75142 35.64852,35.86699 4.07828,4.20565 6.46335,5.78969 5.2617,3.49567 5.22529,-2.85847 l -0.38234,-90.15909 0.72826,-4.02361 q 0.14565,-0.78289 0.60083,-0.0364 1.01956,1.65682 3.49565,1.21985 8.75739,-1.56577 14.98404,4.91581 a 2.0027259,2.5307174 18 0 1 0.58262,1.56578 z" id="path30" style="stroke-width:1.82065"></path>  <path fill="#ffef81" d="m 727.52552,587.17813 v 127.90122 q -0.2913,0.38247 -0.41874,0.81938 a 0.78288387,1.0377761 13.4 0 1 -0.94674,0.78296 q -7.55575,-1.1107 -6.24487,-9.33997 1.58397,-10.0136 -8.24759,-10.0136 -3.5685,0 -4.02366,-2.73106 -1.31088,-24.10554 -0.89213,-48.2475 0.56441,-31.40642 0.43696,-62.81273 0.21848,-4.22392 1.71142,-0.21849 a 1.7842467,2.3122382 87.1 0 0 1.78425,1.23807 l 10.57803,1.4565 q 1.05599,0.14571 1.78426,0.10928 1.38369,-0.0727 1.80244,1.14697 a 1.3837016,0.91032994 81.4 0 0 0.83751,0.92856 q 0.72827,0.12746 0.71006,-0.43698 -0.0364,-0.36412 -0.0182,-0.50975 0.40055,-2.58536 1.14701,-0.0728 z" id="path32" style="stroke-width:1.82065"></path>  <path fill="#feab2d" d="m 494.48105,607.66054 0.14566,15.02045 -0.91034,3.18615 -10.39596,7.10055 a 1.4383214,1.5293544 79.6 0 0 -0.60083,0.81935 q -0.36413,1.2926 -0.83749,-1.09244 l -0.92854,-11.76145 a 1.5293544,1.1652224 10.2 0 0 -1.03779,-1.12879 q -3.14974,-1.09246 -4.86116,-3.95082 v -15.02045 q 0.2731,5.2435 1.38371,2.42148 a 1.3654949,1.4383214 4.9 0 1 0.98316,-0.87396 l 0.38233,-0.091 a 1.183429,1.5657676 21.9 0 0 0.63723,-0.3823 q 5.02503,-4.93398 11.08782,-2.05736 0.61902,0.29127 1.71143,0.34596 l 0.74647,0.0545 a 1.0559828,0.91032994 85.5 0 1 0.87392,0.87387 q 1.38369,7.9745 1.23804,16.09464 -0.20028,10.03186 0,-0.45515 0.14565,-7.48292 0.38234,-9.1033 z" id="path34" style="stroke-width:1.82065"></path>  <path fill="#fbb31d" d="m 511.32215,612.21223 q 7.4465,2.23933 4.62448,9.55846 -2.56712,6.64539 -3.18616,10.39598 -8.24759,8.55704 -16.82289,16.76823 -2.27582,2.18481 -5.31633,3.89621 -2.89485,1.62039 -5.71687,3.36815 -0.83751,0.52805 -2.02094,1.76609 -2.42147,2.51256 -3.20435,-1.16521 a 2.3304447,2.8220229 48.7 0 1 0.27309,-1.6932 q 2.36686,-4.66087 2.31224,-6.48147 -0.2549,-7.95636 -0.38233,-15.93087 0.47336,2.38504 0.83749,1.09244 a 1.4383214,1.5293544 79.6 0 1 0.60083,-0.81935 l 10.39596,-7.10055 7.20981,-4.02369 z" id="path36" style="stroke-width:1.82065"></path>  <path fill="#fbbc41" d="m 481.88209,632.6946 q 0.12743,7.97451 0.38233,15.93087 0.0546,1.8206 -2.31224,6.48147 a 2.3304447,2.8220229 48.7 0 0 -0.27309,1.6932 q 0.78288,3.67777 3.20435,1.16521 1.18343,-1.23804 2.02094,-1.76609 2.82202,-1.74776 5.71687,-3.36815 3.04051,-1.7114 5.31633,-3.89621 8.5753,-8.21119 16.82289,-16.76823 3.91443,-3.13155 9.1033,-3.11338 0.98315,-0.83753 1.43833,0.9103 -33.90069,34.30126 -68.23834,68.14734 -12.9813,12.79917 -25.76233,25.70773 -39.9817,40.30941 -80.54601,80.03617 -5.29811,5.18896 -9.1215,6.49982 -5.42557,1.89343 -11.67043,0.69174 l 0.45517,-2.13009 q 2.05734,-0.54615 3.95082,-1.4566 1.74784,-0.85557 3.8598,-1.60204 6.3177,-2.20307 9.41282,-8.42974 1.85706,-3.76869 7.00954,-6.68175 5.58942,-3.13154 13.67315,-12.25309 9.3582,-10.54166 20.46422,-19.15333 2.96768,-2.29414 14.71094,-14.18301 3.09511,-3.13147 6.44514,-8.33867 3.62311,-5.66212 6.84567,-8.19293 6.40872,-5.06131 10.01363,-10.46875 6.17203,-9.26714 14.58349,-14.58343 12.87206,-8.1385 18.7528,-22.1757 1.60217,-3.85977 -0.50979,-5.73511 a 0.85571025,0.92853655 39.1 0 0 -1.29266,0.18208 q -6.64542,8.5754 -14.80198,15.65771 -2.38506,2.05726 -6.15383,5.98993 -3.00408,3.13162 -6.53616,5.68045 a 1.092396,1.4201147 49.2 0 1 -1.56577,0.0911 l -3.73236,-3.2772 q 24.68815,-24.6517 49.15783,-49.54012 3.0405,-3.09519 2.73099,-10.48704 -0.50978,-12.03454 -0.38235,-24.10549 1.71142,2.85836 4.86116,3.95082 a 1.5293544,1.1652224 10.2 0 1 1.03779,1.12879 z" id="path38" style="stroke-width:1.82065"></path>  <path fill="#ffdb60" d="m 572.76943,763.78209 -0.41876,-13.65496 a 1.9481061,1.5293544 21.8 0 0 -0.78287,-1.34721 q -1.20165,-0.89213 -1.58398,-3.05864 a 2.6581635,2.6035437 15.6 0 0 -0.89212,-1.54767 q -7.1734,-6.17201 -14.61991,-3.80526 a 1.9298995,2.3304447 7.1 0 0 -1.21984,1.14704 q -1.34728,2.87671 -1.27445,-2.76732 0.49157,-46.60883 0.40054,-93.21779 -0.0181,-6.22664 1.09239,-9.12152 1.78425,-4.58804 5.95356,-7.46467 3.07692,-2.13021 5.98997,0.20023 6.00818,4.7701 7.24623,11.63407 0.18207,0.94673 0.18207,13.01766 0.0546,55.0022 -0.0729,109.98604 z" id="path40" style="stroke-width:1.82065"></path>  <path fill="#fda42d" d="m 417.24865,684.12823 0.30951,10.92398 q -1.18343,7.04597 -1.03777,-3.64127 0.0546,-4.06017 -0.23669,-0.61898 -0.0181,0.16375 0,0.32766 0.5462,4.24216 -3.38643,-1.07421 a 2.6217504,2.6945768 82 0 0 -1.29266,-0.94679 q -4.00545,-1.38369 -6.64541,0.85572 -1.96632,1.65684 -2.03914,5.38912 -0.12745,5.24354 0.60081,12.45341 0.85571,8.44784 -1.91169,18.33403 a 2.8402296,3.368221 72.8 0 1 -0.94674,1.47477 l -1.03778,0.94672 a 2.5307174,2.0391391 76 0 0 -0.71006,1.52935 q -0.47336,5.35271 -4.26033,8.39325 -4.22394,3.38645 -4.98861,4.36958 -2.40328,3.0952 -3.78698,5.5712 -1.16523,2.09375 -3.07692,2.82205 -3.18614,1.20155 -3.56849,1.49294 -2.00272,1.4747 -3.65953,3.33172 -1.18343,1.34728 -1.98451,4.31491 -1.29266,4.84305 -5.40737,7.55586 -0.85571,0.56447 -5.18887,1.60218 -3.0223,0.72823 -4.80655,3.22262 -2.56712,3.56837 -2.60354,3.62303 -8.02912,8.77558 -19.04411,18.88026 -2.43968,2.23941 -5.46198,3.58661 -1.675,0.74655 -4.02365,3.09513 -0.25489,-2.16651 -2.27582,-2.73098 l 70.00438,-70.62322 a 6.2630703,6.6272022 66.3 0 0 1.92989,-4.55173 l 0.0546,-94.07356 q 1.16523,-1.00133 1.16523,0.9104 0.0181,3.67773 1.54756,1.76601 a 1.274462,1.5293544 27.7 0 1 1.40191,-0.58262 q 3.93262,0.91031 5.60763,4.67907 a 1.3837016,1.3108752 77.4 0 0 1.21984,0.81936 q 5.04324,-0.0727 8.42967,3.56845 a 2.3304447,2.4760975 21.8 0 1 0.61902,1.58403 z" id="path42" style="stroke-width:1.82065"></path>  <path fill="#ffec79" d="m 658.86844,657.65586 37.7787,37.46918 q -6.68183,4.406 -5.11606,11.41555 0.47337,2.13017 3.00409,5.64403 1.67499,2.33049 3.55028,5.40737 a 1.0195696,1.0377761 56 0 1 -0.27309,1.3656 q -2.89485,2.16643 -3.51388,4.31484 l -52.34397,-52.34386 q 1.98451,-2.58546 4.24214,-4.91587 1.80244,-1.8571 5.2617,-3.56838 3.96904,-1.98473 7.41009,-4.78846 z" id="path44" style="stroke-width:1.82065"></path>  <path fill="#fbb31d" d="m 328.41866,808.9163 q -7.1734,-1.80244 -1.3655,-6.97322 2.34865,-2.34858 4.02365,-3.09513 3.0223,-1.3472 5.46198,-3.58661 11.01499,-10.10468 19.04411,-18.88026 0.0364,-0.0544 2.60354,-3.62303 1.78425,-2.49439 4.80655,-3.22262 4.33316,-1.03771 5.18887,-1.60218 4.11471,-2.71281 5.40737,-7.55586 0.80108,-2.96763 1.98451,-4.31491 1.65681,-1.85702 3.65953,-3.33172 0.38235,-0.29139 3.56849,-1.49294 1.91169,-0.7283 3.07692,-2.82205 1.3837,-2.476 3.78698,-5.5712 0.76467,-0.98313 4.98861,-4.36958 3.78697,-3.04054 4.26033,-8.39325 a 2.5307174,2.0391391 76 0 1 0.71006,-1.52935 l 1.03778,-0.94672 a 2.8402296,3.368221 72.8 0 0 0.94674,-1.47477 q 2.7674,-9.88619 1.91169,-18.33403 -0.72826,-7.20987 -0.60081,-12.45341 0.0729,-3.73228 2.03914,-5.38912 2.63996,-2.23941 6.64541,-0.85572 a 2.6217504,2.6945768 82 0 1 1.29266,0.94679 q 3.93263,5.31637 3.38643,1.07421 -0.0181,-0.16391 0,-0.32766 0.29131,-3.44119 0.23669,0.61898 -0.14566,10.68724 1.03777,3.64127 -1.18343,9.0669 5.98997,4.93398 l 3.73236,3.2772 a 1.092396,1.4201147 49.2 0 0 1.56577,-0.0911 q 3.53208,-2.54883 6.53616,-5.68045 3.76877,-3.93267 6.15383,-5.98993 8.15656,-7.08231 14.80198,-15.65771 a 0.85571025,0.92853655 39.1 0 1 1.29266,-0.18208 q 2.11196,1.87534 0.50979,5.73511 -5.88074,14.0372 -18.7528,22.1757 -8.41146,5.31629 -14.58349,14.58343 -3.60491,5.40744 -10.01363,10.46875 -3.22256,2.53081 -6.84567,8.19293 -3.35003,5.2072 -6.44514,8.33867 -11.74326,11.88887 -14.71094,14.18301 -11.10602,8.61167 -20.46422,19.15333 -8.08373,9.12155 -13.67315,12.25309 -5.15248,2.91306 -7.00954,6.68175 -3.09512,6.22667 -9.41282,8.42974 -2.11196,0.74647 -3.8598,1.60204 -1.89348,0.91045 -3.95082,1.4566 z" id="path46" style="stroke-width:1.82065"></path>  <path fill="#ffe561" d="m 707.64392,694.59706 q 0.45516,2.73106 4.02366,2.73106 9.83156,0 8.24759,10.0136 -1.31088,8.22927 6.24487,9.33997 a 0.78288387,1.0377761 13.4 0 0 0.94674,-0.78296 q 0.12744,-0.43691 0.41874,-0.81938 v 3.64143 l -6.15383,25.85347 q -0.10924,0.41866 -0.96495,1.45652 l -1.52934,1.8206 -24.57892,-24.57894 q 0.61903,-2.14841 3.51388,-4.31484 a 1.0195696,1.0377761 56 0 0 0.27309,-1.3656 q -1.87529,-3.07688 -3.55028,-5.40737 -2.53072,-3.51386 -3.00409,-5.64403 -1.56577,-7.00955 5.11606,-11.41555 l 8.61171,6.44509 q 2.40328,1.80251 2.40328,-1.18338 z" id="path48" style="stroke-width:1.82065"></path>  <path fill="#fecf5f" d="m 495.08186,704.61067 -0.14564,84.20558 q -1.3473,0.45515 -1.45654,-0.78296 a 0.92853655,0.81929702 86.2 0 0 -0.8557,-0.85571 q -9.44924,0.49164 -13.07234,-7.26439 -0.14566,-0.32766 -2.87665,-5.17063 -2.27582,-4.04185 1.62039,-7.90169 a 4.1511047,3.9508321 68.6 0 0 1.16523,-2.87671 l -0.0546,-45.57111 a 0.78288387,0.81929702 88.1 0 0 -0.87392,-0.78282 q -1.98452,0.091 -3.47747,-1.62043 0.27311,-2.11192 1.65681,-3.75052 5.84431,-6.90031 12.38049,-13.16339 8.02911,-8.7574 5.98997,5.53478 z" id="path50" style="stroke-width:1.82065"></path>  <path fill="#fff394" d="m 650.14748,757.86491 -0.72826,4.67921 a 1.2562553,1.1470157 1.9 0 1 -1.12881,0.96489 q -6.04459,0.45515 -12.07098,0.30957 -0.14565,-0.0186 -1.98452,-0.32774 -1.9117,-0.32773 -3.91443,1.20162 -1.01956,0.78289 -1.05597,-0.52805 l -0.36413,-17.67849 q 0.65543,-23.66864 0.38233,-47.3372 -0.0364,-2.63998 2.62176,-3.00413 a 2.0755524,1.6932139 58.5 0 1 1.56576,0.54623 q 5.98997,5.62585 14.12832,14.63809 3.44105,3.80525 3.0405,8.42966 -0.32772,3.55028 -0.32772,3.65945 -0.12743,17.22348 -0.16385,34.44689 z" id="path52" style="stroke-width:1.82065"></path>  <path fill="#ffea77" d="m 475.0546,715.9898 q 1.49294,1.71143 3.47747,1.62043 a 0.78288387,0.81929702 88.1 0 1 0.87391,0.78282 l 0.0546,45.57111 a 4.1511047,3.9508321 68.6 0 1 -1.16523,2.87671 q -3.89621,3.85984 -1.62039,7.90169 2.731,4.84297 2.87665,5.17063 3.62311,7.75603 13.07233,7.26439 a 0.92853655,0.81929702 86.2 0 1 0.85572,0.85571 q 0.10923,1.23811 1.45653,0.78296 1.14701,93.50909 0.52798,147.01831 -0.091,7.61036 0.72828,11.87069 a 1.2016356,1.2562553 88.4 0 0 1.07417,0.98313 q 16.54981,2.03917 33.24526,1.32904 7.61037,5.4802 16.05821,9.46746 2.05735,0.96496 6.42695,1.32911 7.228,0.60073 8.04731,7.91993 a 0.8921234,0.96494977 83.7 0 1 -0.85572,0.98313 l -6.00818,0.63722 -41.42,0.14566 -172.9627,-0.14566 q -9.41281,-0.29139 -5.46198,-1.12879 a 1.2926686,1.8934863 12.2 0 0 1.1106,-1.05603 q 0.38234,-0.87396 1.51113,-1.03772 a 1.5657676,1.3654949 5.8 0 0 1.21986,-0.85579 q 1.29268,-3.00405 4.00545,-3.47745 6.3541,-1.0742 8.37504,-6.17201 2.16659,-5.48019 7.90166,-6.60906 18.1884,0.49157 36.30396,-1.01955 a 1.3837016,1.0559828 0.2 0 0 1.21983,-0.92847 l 1.23807,-8.13834 q 4.1875,-7.44654 11.87071,-4.66097 5.11604,1.83884 7.44649,2.20299 a 0.32771879,1.183429 47.6 0 0 0.8193,-0.41866 q 0.36412,-0.29132 0.65543,1.05596 l 0.60082,7.8652 q 0.25489,3.22261 4.42421,3.45927 24.88841,1.45653 48.77548,-0.40049 a 1.9298995,1.9663128 87.9 0 0 1.80244,-1.91167 q 1.3655,-89.57664 0.83751,-179.2441 z" id="path54" style="stroke-width:1.82065"></path>  <path fill="#ffca4c" d="m 727.52552,718.72078 q 0.29131,7.95635 6.7911,14.21936 23.72319,22.95858 64.8519,65.27066 0.091,0.091 3.34995,3.09513 3.36829,3.09513 6.28135,8.22942 a 0.71005739,0.69185079 73.9 0 1 -0.56444,1.05589 l -21.39275,0.50988 q -4.02368,0.10917 -7.30085,-3.14986 l -60.66438,-60.09989 1.52934,-1.8206 q 0.85571,-1.03786 0.96495,-1.45652 z" id="path56" style="stroke-width:1.82065"></path>  <path fill="#ffef81" d="m 551.9775,738.74807 q -0.0729,5.64403 1.27445,2.76732 a 1.9298995,2.3304447 7.1 0 1 1.21984,-1.14704 q 7.44651,-2.36675 14.61991,3.80526 a 2.6581635,2.6035437 15.6 0 1 0.89212,1.54767 q 0.38233,2.16651 1.58398,3.05864 a 1.9481061,1.5293544 21.8 0 1 0.78287,1.34721 l 0.41876,13.65496 v 96.95016 q -2.203,1.51111 -2.98588,3.98733 a 1.6203874,2.0937589 3.1 0 1 -1.0742,1.23804 q -6.77285,2.62166 -13.96445,1.62028 a 1.9116929,1.6203874 22.2 0 0 -1.56578,0.50981 l -1.20162,1.2927 z" id="path58" style="stroke-width:1.82065"></path>  <path fill="#fff263" d="m 628.90038,746.48592 0.36413,17.67849 q 0.0364,1.31094 1.05597,0.52805 2.00273,-1.52935 3.91443,-1.20162 1.83887,0.30949 1.98452,0.32774 6.02639,0.14558 12.07098,-0.30957 a 1.2562553,1.1470157 1.9 0 0 1.12881,-0.96489 l 0.72826,-4.67921 v 72.82645 q -0.92854,6.66365 -0.38234,9.5586 1.01957,5.29805 -1.62039,3.34988 a 3.4046342,3.3864275 59 0 0 -2.51251,-0.63722 q -9.1033,1.34728 -12.59896,-3.2772 -2.29404,-3.07689 -2.731,0.21849 -0.23669,1.87533 -1.4019,-0.10925 z" id="path60" style="stroke-width:1.82065"></path>  <path fill="#ffca4c" d="m 727.52552,885.76637 q -0.50977,2.56715 -0.89212,0.92855 -1.16522,-4.95222 -5.20709,-4.77015 -2.94945,0.12749 -5.84431,1.45653 -4.24214,1.96626 -2.82203,7.77427 0.16386,0.7464 0.20027,1.31087 0.18207,4.47882 -1.4019,0.80113 -0.5644,-1.32919 -1.05599,0.0186 -2.53071,6.90039 -3.3136,3.4047 l -0.0729,-123.60465 q 0,-2.43965 1.83887,-0.83754 10.25032,8.97589 17.78786,19.8088 a 2.8766429,2.8584362 27.5 0 1 0.52798,1.65692 z" id="path62" style="stroke-width:1.82065"></path>  <path fill="#ffd853" d="m 418.01333,938.11038 q -0.29131,-1.34728 -0.65544,-1.05596 a 0.32771879,1.183429 47.6 0 1 -0.8193,0.41866 q -2.33045,-0.36415 -7.44649,-2.20299 -7.68318,-2.78557 -11.8707,4.66097 l 0.36413,-146.12617 a 3.095122,3.095122 0 0 1 0.50978,-1.63868 q 5.42556,-8.37501 12.78102,-15.18424 2.65817,-3.9145 5.89895,-1.80243 a 1.6021808,1.8570732 13.6 0 1 0.74647,1.45645 z" id="path64" style="stroke-width:1.82065"></path>  <path fill="#fac97c" d="m 324.77734,799.2121 q 2.02093,0.56447 2.27582,2.73098 -5.8079,5.17078 1.3655,6.97322 l -0.45517,2.13009 -11.70685,-0.49157 a 0.60081779,0.637231 16.5 0 1 -0.47336,-0.94671 q 3.53207,-6.37226 8.99406,-10.39601 z" id="path66" style="stroke-width:1.82065"></path>  <path fill="#ffdd46" d="m 650.14748,830.69136 -0.45517,84.20561 q -0.0364,-3.27721 -2.23941,-5.27996 a 2.5307174,2.5489239 57.3 0 0 -2.45789,-0.52798 q -4.56986,1.42004 -7.62856,2.91313 -0.40055,0.182 -0.71006,0.12741 -0.67365,-0.10924 -0.5462,-0.6373 a 0.34592539,0.41875179 4.9 0 0 -0.36412,-0.52805 l -5.13427,0.92862 a 1.2380488,1.183429 86.4 0 0 -0.98317,1.16521 l -0.41874,10.03185 -0.30951,-83.29524 q 1.16521,1.98458 1.4019,0.10925 0.43696,-3.29538 2.731,-0.21849 3.49566,4.62448 12.59896,3.2772 a 3.4046342,3.3864275 59 0 1 2.51251,0.63722 q 2.63996,1.94817 1.62039,-3.34988 -0.5462,-2.89495 0.38234,-9.5586 z" id="path68" style="stroke-width:1.82065"></path>  <path fill="#ffea77" d="m 572.76943,860.73225 v 26.8548 l -0.50979,6.71823 a 0.67364418,0.637231 9.5 0 1 -0.8375,0.56432 q -1.14702,-0.27307 -1.3655,0.81938 a 1.274462,2.4943041 1.8 0 1 -0.78288,1.42004 q -2.87664,1.98465 -6.44513,2.27582 a 3.2771879,3.1861549 24 0 0 -1.63861,0.60096 q -2.65815,1.94802 -5.89893,2.60356 a 1.729627,2.184792 60.9 0 1 -1.47474,-0.23681 l -0.65543,-0.41873 q -0.71006,-0.45515 -0.72827,0.32766 l -0.14564,6.26316 -0.30951,-39.14423 1.20162,-1.2927 a 1.9116929,1.6203874 22.2 0 1 1.56578,-0.50981 q 7.1916,1.00138 13.96445,-1.62028 a 1.6203874,2.0937589 3.1 0 0 1.0742,-1.23804 q 0.78288,-2.47622 2.98588,-3.98733 z" id="path70" style="stroke-width:1.82065"></path>  <path fill="#ffa926" d="m 727.52552,885.76637 0.49158,60.68268 a 3.0587087,3.1133285 89.8 0 0 3.11333,3.04046 l 114.81084,0.0722 q 3.36823,0.81923 6.79105,1.18338 2.29396,0.2368 0.58259,0.78303 -0.38228,0.12734 0.0183,0.30942 1.76602,0.78288 0.60081,1.85701 -0.69183,0.65547 -1.00132,1.12887 -2.09378,3.22261 -5.77157,4.33316 a 2.8584362,3.1497417 13.8 0 0 -1.40189,0.94679 l -5.57125,6.73641 q -1.27444,1.51118 0.72834,1.76601 l 10.48697,1.29277 -17.2963,0.14559 -174.32817,0.30956 6.37231,-0.71005 q 0.78288,-0.0911 0,-0.25506 -2.03914,-0.45515 -1.03777,-1.9116 a 1.638594,2.5853371 48.7 0 0 0.47336,-1.60219 q -0.8375,-6.57257 -4.00545,-12.39875 a 1.8206599,2.6035437 30.6 0 1 -0.12744,-1.65677 q 0.32772,-1.23796 -0.30951,-2.25758 l 44.15099,-0.50974 a 1.4019082,1.3654949 89.6 0 0 1.34731,-1.40201 l 0.54618,-50.96024 q 0.78288,3.49569 3.3136,-3.40454 0.49158,-1.34736 1.05599,-0.0186 1.58397,3.67777 1.4019,-0.80106 -0.0364,-0.56454 -0.20026,-1.31086 -1.42012,-5.80801 2.82202,-7.77435 2.89485,-1.32903 5.84431,-1.45645 4.04186,-0.18207 5.20709,4.77014 0.38235,1.63861 0.89212,-0.92854 z" id="path72" style="stroke-width:1.82065"></path>  <path fill="#ffde5b" d="m 572.76943,887.58705 q 0.12745,29.58574 0.0728,59.17149 0,2.18475 0.91033,2.80373 1.49295,0.67372 3.18616,0.65547 2.22121,-0.0186 0.5462,1.03779 a 1.0741894,1.092396 64.5 0 0 -0.45516,1.25628 q 2.91304,8.5935 0.0181,16.20386 0.72826,1.91175 -2.84023,1.6386 h -20.02726 l 6.00817,-0.63722 a 0.8921234,0.96494977 83.7 0 0 0.85572,-0.98313 q -0.81931,-7.3192 -8.04732,-7.91993 -4.36959,-0.36415 -6.42693,-1.32911 -8.44786,-3.98726 -16.05822,-9.46746 l 18.27943,-0.61898 a 2.7674032,2.8584362 1.3 0 0 2.65816,-2.62173 q 1.49294,-19.09874 0.8375,-38.25207 l 0.14566,-6.26316 q 0.0181,-0.78281 0.72826,-0.32766 l 0.65543,0.41873 a 1.729627,2.184792 60.9 0 0 1.47474,0.23681 q 3.24078,-0.65554 5.89893,-2.60356 a 3.2771879,3.1861549 24 0 1 1.63861,-0.60096 q 3.5685,-0.29117 6.44514,-2.27582 a 1.274462,2.4943041 1.8 0 0 0.78288,-1.42004 q 0.21847,-1.09245 1.36549,-0.81938 a 0.67364418,0.637231 9.5 0 0 0.83751,-0.56432 z" id="path74" style="stroke-width:1.82065"></path>  <path fill="#ffcb3b" d="m 649.69231,914.89697 0.60082,32.64438 a 1.2562553,1.2562553 0 0 0 0.91032,1.18345 q 4.84296,1.32904 9.94081,0.83747 0.63723,1.01962 0.30951,2.25766 a 1.8206599,2.6035437 30.6 0 0 0.12744,1.65669 q 3.16795,5.82618 4.00546,12.39883 a 1.638594,2.5853371 48.7 0 1 -0.47338,1.60211 q -1.00135,1.45653 1.03779,1.91168 0.78289,0.16398 0,0.25498 l -6.37231,0.71005 h -85.57103 q 3.5685,0.27315 2.84024,-1.6386 2.89484,-7.61036 -0.0181,-16.20386 a 1.0741894,1.092396 64.5 0 1 0.45516,-1.25628 q 1.67501,-1.05603 -0.54619,-1.03779 -1.6932,0.0186 -3.18616,-0.65547 l 52.83555,-0.0722 a 1.8206599,1.7660402 0.9 0 0 1.82066,-1.71151 l 0.80109,-24.68811 0.41875,-10.03185 a 1.2380488,1.183429 86.4 0 1 0.98317,-1.16513 l 5.13425,-0.92862 a 0.34592539,0.41875179 4.9 0 1 0.36414,0.52798 q -0.12745,0.52805 0.54619,0.6373 0.30952,0.0544 0.71007,-0.12742 3.0587,-1.49301 7.62856,-2.91305 a 2.5307174,2.5489239 57.3 0 1 2.45789,0.5279 q 2.20299,2.00283 2.2394,5.27996 z" id="path76" style="stroke-width:1.82065"></path>  <path fill="#fb7a24" d="m 845.94127,949.56227 h 25.03407 q 46.55423,0.8193 75.10219,0.38247 12.65358,-0.20039 22.21204,1.32896 a 1.3472883,1.4019082 87.9 0 1 1.12879,1.00145 q 1.51118,5.78969 -0.27308,14.14645 a 2.1119656,2.1119656 0 0 1 -2.02099,1.67494 l -115.72099,1.80258 -10.48704,-1.29269 q -2.00278,-0.25483 -0.72835,-1.76609 l 5.57133,-6.73641 a 2.8584362,3.1497417 13.8 0 1 1.40189,-0.94679 q 3.67771,-1.11054 5.7715,-4.33316 0.30949,-0.47332 1.00132,-1.12879 1.16521,-1.07421 -0.60082,-1.85702 -0.4005,-0.18215 -0.0183,-0.30956 1.71145,-0.54623 -0.5826,-0.78296 -3.42281,-0.36408 -6.79104,-1.18338 z" id="path78" style="stroke-width:1.82065"></path>  <path fill="#ffc146" d="m 283.35732,950.01742 q -11.10602,4.51524 -16.67725,14.94766 a 0.3095122,0.25489239 49.7 0 0 0,0.23666 q 1.51115,4.1875 -0.60082,3.95084 a 1.9298995,0.81929702 17.3 0 0 -0.92853,0.0911 l -0.43696,0.20025 q -0.91033,0.40049 0.091,0.41881 l 48.13825,0.49156 -155.53898,-0.40049 a 3.3500143,3.0405021 0.8 0 1 -3.34998,-3.13164 l 0.47337,-14.96583 a 1.6203874,1.3837016 81.5 0 1 0.87392,-1.38377 q 0.61903,-0.25483 1.42011,-0.14558 z" id="path80" style="stroke-width:1.82065"></path>  <path fill="#ffdb60" d="m 283.35732,950.01742 h 75.10222 q -5.73507,1.12887 -7.90166,6.60906 -2.02094,5.09781 -8.37503,6.17201 -2.71279,0.4734 -4.00546,3.47745 a 1.5657676,1.3654949 5.8 0 1 -1.21984,0.85579 q -1.12881,0.16376 -1.51115,1.03772 a 1.2926686,1.8934863 12.2 0 1 -1.1106,1.05603 q -3.95083,0.8374 5.46198,1.12879 h -26.85474 l -48.13825,-0.49156 q -1.00136,-0.0186 -0.091,-0.41881 l 0.43696,-0.20025 a 1.9298995,0.81929702 17.3 0 1 0.92853,-0.0911 q 2.11197,0.23666 0.60082,-3.95084 a 0.3095122,0.25489239 49.7 0 1 0,-0.23666 q 5.57123,-10.43242 16.67725,-14.94766 z" id="path82" style="stroke-width:1.82065"></path>  <path fill="#ffec79" d="m 404.88638,1010.8639 66.45408,0.1457 -3.65952,1.1652 q -0.67365,0.2185 -0.14566,0.6736 1.51115,1.3109 1.42011,3.2044 -0.30951,5.9354 -0.0729,9.3219 a 2.1483788,2.4396843 59.9 0 1 -0.52799,1.5838 q -1.80246,2.2759 0.71006,3.9327 l -69.18509,0.6008 -131.21495,-0.4187 a 1.2198422,1.2198422 0 0 1 -1.16523,-0.874 q -1.91169,-6.9003 -0.63723,-16.4041 a 2.8038164,2.7856098 3 0 1 2.71279,-2.4215 q 67.25517,-1.2562 135.31144,-0.5098 z" id="path84" style="stroke-width:1.82065"></path>  <path fill="#fcd758" d="m 560.09763,1010.5544 3.64132,0.4552 a 0.76467719,0.65543759 9.8 0 1 0.67365,0.8194 q -1.05599,4.5697 0.29131,9.0485 0.25488,0.8375 0.0729,1.7478 -0.71005,3.2955 0.69185,6.2632 a 1.3472883,1.0195696 59.9 0 1 -0.18206,1.493 q -0.45517,0.3458 -1.0924,0.5097 h -95.12956 q -2.51252,-1.6568 -0.71006,-3.9327 a 2.1483788,2.4396843 59.9 0 0 0.52799,-1.5838 q -0.23669,-3.3865 0.0729,-9.3219 0.091,-1.8935 -1.4201,-3.2044 -0.528,-0.4551 0.14564,-0.6736 l 3.65952,-1.1652 z" id="path86" style="stroke-width:1.82065"></path>  <path fill="#fbbe3a" d="m 560.09763,1010.5544 h 65.54376 q 1.74784,0.6737 3.89621,0.3459 1.34729,-0.2184 0.8193,1.0378 -1.82066,4.224 1.25626,5.5347 a 1.6932139,1.9663128 1.1 0 1 0.98316,1.1836 l 1.78424,6.4815 a 1.9663128,1.638594 57.2 0 1 -0.18207,1.5293 q -1.36549,2.1303 0.96496,3.3501 0.72826,0.4004 -0.0729,0.4187 l -28.11098,0.9104 -42.78552,-0.4552 q 0.63723,-0.1639 1.0924,-0.5097 a 1.3472883,1.0195696 59.9 0 0 0.18207,-1.493 q -1.40192,-2.9677 -0.69185,-6.2632 0.18207,-0.9103 -0.0729,-1.7478 -1.34728,-4.4788 -0.29129,-9.0485 a 0.76467719,0.65543759 9.8 0 0 -0.67364,-0.8194 z" id="path88" style="stroke-width:1.82065"></path>  <path fill="#feb32d" d="m 625.64139,1010.5544 58.71629,0.3095 q -15.23893,0.1275 -30.49606,0.4552 -8.35682,0.1639 -1.76604,4.6973 a 1.4019082,1.4747346 20.4 0 1 0.60082,1.4019 q -0.60082,4.8429 0.87392,9.4857 a 2.4396843,2.1301722 9.1 0 0 1.09239,1.3108 q 6.66361,3.8052 -3.07691,2.8038 -3.45926,-0.3459 -6.82748,0.3278 h -37.7787 l 28.11099,-0.9104 q 0.8011,-0.019 0.0729,-0.4187 -2.33046,-1.2198 -0.96496,-3.3501 a 1.9663128,1.638594 57.2 0 0 0.18207,-1.5293 l -1.78426,-6.4815 a 1.6932139,1.9663128 1.1 0 0 -0.98315,-1.1836 q -3.07691,-1.3107 -1.25625,-5.5347 0.52799,-1.2562 -0.8193,-1.0378 -2.14838,0.3278 -3.89622,-0.3459 z" id="path90" style="stroke-width:1.82065"></path>  <path fill="#fa9b20" d="m 684.35768,1010.8639 100.13633,0.1457 11.74319,0.9466 q 0.72833,0.054 0.091,0.4736 -5.735,3.6413 -4.80653,10.7055 a 1.2926686,1.274462 72 0 1 -0.65538,1.3108 q -8.15656,4.3878 0.40055,5.6622 a 0.32771879,0.2913056 17.8 0 1 0.27309,0.437 l -0.21849,0.3459 -146.56315,0.4552 q 3.36822,-0.6737 6.82748,-0.3278 9.74052,1.0014 3.07691,-2.8038 a 2.4396843,2.1301722 9.1 0 1 -1.09239,-1.3108 q -1.47474,-4.6428 -0.87392,-9.4857 a 1.4019082,1.4747346 20.4 0 0 -0.60082,-1.4019 q -6.59078,-4.5334 1.76604,-4.6973 15.25713,-0.3277 30.49606,-0.4552 z" id="path92" style="stroke-width:1.82065"></path>  <path fill="#ff871d" d="m 784.49401,1011.0096 43.69582,-0.1457 26.67272,0.5645 a 2.5489239,2.4396843 85.9 0 1 2.38497,2.1483 q 1.63857,10.2321 -1.29264,16.4041 l -64.63341,0.9104 0.21849,-0.3459 a 0.32771879,0.2913056 17.8 0 0 -0.27309,-0.437 q -8.55711,-1.2744 -0.40055,-5.6622 a 1.2926686,1.274462 72 0 0 0.65538,-1.3108 q -0.92847,-7.0642 4.80653,-10.7055 0.6373,-0.4188 -0.091,-0.4736 z" id="path94" style="stroke-width:1.82065"></path>  <path fill="#fff394" d="m 404.88638,1070.6362 q -1.58397,6.2085 -1.0924,12.5626 a 1.9116929,2.0755524 64.3 0 1 -0.60083,1.5293 q -2.31222,2.3305 -3.04049,5.5166 a 1.6568007,1.729627 84.1 0 1 -1.01958,1.2016 l -1.07419,0.437 q -2.38506,0.6007 -4.04186,-0.528 -1.27446,-0.8739 -1.58397,-3.1861 -1.01957,-7.8835 0.5462,-15.6941 a 1.4747346,1.4747346 0 0 1 1.05598,-1.1289 q 5.31632,-1.3471 10.85114,-0.71 z" id="path96" style="stroke-width:1.82065"></path>  <path fill="#ffde6b" d="m 404.88638,1070.6362 19.57208,-0.1456 12.74462,0.1456 -4.13289,5.8989 a 2.4760975,2.3668579 60.6 0 0 -0.41875,1.6386 q 0.63723,5.8443 -3.22257,10.9058 a 0.76467719,0.76467719 0 0 0 0.45517,1.2198 q 3.27719,0.6919 0.98315,0.437 -2.2212,-0.2549 -3.67773,1.147 h -29.13057 l 1.07419,-0.437 a 1.6568007,1.729627 84.1 0 0 1.01958,-1.2016 q 0.72827,-3.1861 3.04049,-5.5166 a 1.9116929,2.0755524 64.3 0 0 0.60083,-1.5293 q -0.49157,-6.3541 1.0924,-12.5626 z" id="path98" style="stroke-width:1.82065"></path>  <path fill="#ffd853" d="m 437.20308,1070.6362 h 72.8264 q 2.78561,1.4201 -0.5644,1.6022 a 0.76467719,0.71005739 81.8 0 0 -0.63723,0.9103 q 0.41875,2.1484 -1.89348,3.4228 -3.16795,1.7478 -2.78562,5.8444 a 1.6568007,1.6203874 69.7 0 1 -0.67364,1.4929 q -3.25898,2.2758 -4.27855,5.3891 a 1.0741894,1.1106026 7.9 0 1 -0.98317,0.7647 q -5.91713,0.3641 1.23807,0.6008 1.00135,0.037 0.0364,0.3278 -2.7492,0.8192 -6.29949,0.5097 -5.38915,-0.4733 -15.02043,0.3824 h -50.97849 q 1.45653,-1.4019 3.67773,-1.147 2.29403,0.2549 -0.98315,-0.437 a 0.76467719,0.76467719 0 0 1 -0.45517,-1.2198 q 3.85979,-5.0615 3.22257,-10.9058 a 2.4760975,2.3668579 60.6 0 1 0.41875,-1.6386 z" id="path100" style="stroke-width:1.82065"></path>  <path fill="#ffc63f" d="m 510.02948,1070.6362 h 65.54376 l 6.40872,3.8416 a 0.56440459,0.60081779 45.4 0 1 -0.0364,0.9832 q -3.71415,2.385 -1.09241,5.3709 a 1.2198422,1.2016356 40.4 0 1 0.12745,1.4201 q -1.91169,2.9858 -2.2212,6.5179 a 1.3654949,1.3654949 0 0 1 -1.31088,1.2381 q -11.92531,0.3096 -5.51659,0.3642 14.78375,0.1638 29.58572,0.2912 -29.96807,0.9468 -35.95804,0.8375 -18.33404,-0.3276 -27.3099,0.3824 h -60.08177 q 9.63129,-0.8557 15.02044,-0.3824 3.55029,0.3095 6.29949,-0.5097 0.96494,-0.2913 -0.0364,-0.3278 -7.15521,-0.2367 -1.23807,-0.6008 a 1.0741894,1.1106026 7.9 0 0 0.98317,-0.7647 q 1.01957,-3.1133 4.27855,-5.3891 a 1.6568007,1.6203874 69.7 0 0 0.67365,-1.4929 q -0.38235,-4.0966 2.7856,-5.8444 2.31225,-1.2744 1.89348,-3.4228 a 0.76467719,0.71005739 81.8 0 1 0.63723,-0.9103 q 3.35002,-0.1821 0.56441,-1.6022 z" id="path102" style="stroke-width:1.82065"></path>  <path fill="#feab2d" d="m 575.57324,1070.6362 148.83895,0.3095 q 5.80791,-1.056 7.17341,2.9131 2.51252,7.3919 -1.71142,16.659 l -4.55166,0.6008 q -7.31905,0.2731 -10.46879,-0.528 -3.51387,-0.892 -5.91715,0.073 h -63.26792 q -7.75601,-2.0391 -15.47562,-0.4551 l -28.6754,0.4551 q -14.80196,-0.1273 -29.58572,-0.2912 -6.40872,-0.054 5.5166,-0.3641 a 1.3654949,1.3654949 0 0 0 1.31088,-1.2381 q 0.30951,-3.5321 2.2212,-6.5179 a 1.2198422,1.2016356 40.4 0 0 -0.12745,-1.4201 q -2.62174,-2.9859 1.09241,-5.371 a 0.56440459,0.60081779 45.4 0 0 0.0365,-0.9831 z" id="path104" style="stroke-width:1.82065"></path></svg>