<?xml version="1.0" encoding="UTF-8" standalone="no"?>
<!-- Created with Inkscape (http://www.inkscape.org/) -->

<svg
   version="1.1"
   id="svg2"
   width="3333.3333"
   height="3333.3333"
   viewBox="0 0 3333.3333 3333.3333"
   sodipodi:docname="bwink_bld_01_single_04.eps"
   xmlns:inkscape="http://www.inkscape.org/namespaces/inkscape"
   xmlns:sodipodi="http://sodipodi.sourceforge.net/DTD/sodipodi-0.dtd"
   xmlns="http://www.w3.org/2000/svg"
   xmlns:svg="http://www.w3.org/2000/svg">
  <defs
     id="defs6" />
  <sodipodi:namedview
     id="namedview4"
     pagecolor="#ffffff"
     bordercolor="#feb300"
     borderopacity="0.25"
     inkscape:showpageshadow="2"
     inkscape:pageopacity="0.0"
     inkscape:pagecheckerboard="0"
     inkscape:deskcolor="#d1d1d1" />
  <g
     id="g8"
     inkscape:groupmode="layer"
     inkscape:label="ink_ext_XXXXXX"
     transform="matrix(1.3333333,0,0,-1.3333333,0,3333.3333)">
    <g
       id="g10"
       transform="scale(0.1)">
      <path
         d="M 25000,0 H 0 V 25000 H 25000 V 0"
         style="fill:#ffffff;fill-opacity:1;fill-rule:nonzero;stroke:none"
         id="path12" />
      <path
         d="m 20152.2,9959.1 h -12065 v 8288.8 l 12340.3,-109.6 -0.9,-7882.2 c 0,-164 -122.8,-297 -274.4,-297"
         style="fill:#ffffff;fill-opacity:1;fill-rule:nonzero;stroke:none"
         id="path14" />
      <path
         d="M 8109.24,9981.2 H 20152.2 c 139.2,0 252.4,123.3 252.4,274.9 l 0.9,7860.3 -12296.26,109.3 z m 12042.96,-44.1 h -12065 c -12.17,0 -22.04,9.8 -22.04,22 v 8288.8 c 0,5.9 2.34,11.5 6.52,15.6 4.19,4.2 10.3,6.1 15.71,6.4 l 12340.31,-109.6 c 12.1,-0.1 21.9,-9.9 21.9,-22 l -0.9,-7882.2 c 0,-175.9 -133,-319 -296.5,-319"
         style="fill:#feb300;fill-opacity:1;fill-rule:nonzero;stroke:none"
         id="path16" />
      <path
         d="m 14462.5,16979 -7079.66,35.4 c -98.96,0.5 -164.14,103.3 -122.34,193 l 2080.51,2835.8 c 45.82,62.4 119.01,98.9 196.46,97.4 833.53,-16.4 5727.03,119.5 5727.03,119.5 l -802,-3281.1"
         style="fill:#feb300;fill-opacity:1;fill-rule:nonzero;stroke:none"
         id="path18" />
      <path
         d="m 9914.04,15084.4 c -26.57,0 -48.2,-21.6 -48.2,-48.2 v -1282.5 c 0,-26.6 21.63,-48.2 48.2,-48.2 h 838.06 c 26.6,0 48.2,21.6 48.2,48.2 v 1282.5 c 0,26.6 -21.6,48.2 -48.2,48.2 z m 838.06,-1423 h -838.06 c -50.87,0 -92.27,41.4 -92.27,92.3 v 1282.5 c 0,50.9 41.4,92.3 92.27,92.3 h 838.06 c 50.9,0 92.3,-41.4 92.3,-92.3 v -1282.5 c 0,-50.9 -41.4,-92.3 -92.3,-92.3"
         style="fill:#feb300;fill-opacity:1;fill-rule:nonzero;stroke:none"
         id="path20" />
      <path
         d="m 8773.19,15084.4 c -30.49,0 -55.29,-24.8 -55.29,-55.3 v -1268.3 c 0,-30.5 24.8,-55.3 55.29,-55.3 h 823.89 c 30.49,0 55.29,24.8 55.29,55.3 v 1268.3 c 0,30.5 -24.8,55.3 -55.29,55.3 z m 823.89,-1423 h -823.89 c -54.79,0 -99.36,44.6 -99.36,99.4 v 1268.3 c 0,54.8 44.57,99.4 99.36,99.4 h 823.89 c 54.8,0 99.37,-44.6 99.37,-99.4 v -1268.3 c 0,-54.8 -44.57,-99.4 -99.37,-99.4"
         style="fill:#feb300;fill-opacity:1;fill-rule:nonzero;stroke:none"
         id="path22" />
      <path
         d="m 9893.96,13503.3 c -15.51,0 -28.14,-12.6 -28.14,-28.2 v -1322.6 c 0,-15.5 12.63,-28.2 28.14,-28.2 h 878.14 c 15.6,0 28.2,12.7 28.2,28.2 v 1322.6 c 0,15.6 -12.6,28.2 -28.2,28.2 z m 878.14,-1423 h -878.14 c -39.81,0 -72.21,32.4 -72.21,72.2 v 1322.6 c 0,39.9 32.4,72.3 72.21,72.3 h 878.14 c 39.9,0 72.3,-32.4 72.3,-72.3 v -1322.6 c 0,-39.8 -32.4,-72.2 -72.3,-72.2"
         style="fill:#feb300;fill-opacity:1;fill-rule:nonzero;stroke:none"
         id="path24" />
      <path
         d="m 8775.15,13503.3 c -31.58,0 -57.27,-25.7 -57.27,-57.3 v -1264.4 c 0,-31.6 25.69,-57.3 57.27,-57.3 h 819.92 c 31.58,0 57.27,25.7 57.27,57.3 V 13446 c 0,31.6 -25.69,57.3 -57.27,57.3 z m 819.92,-1423 h -819.92 c -55.88,0 -101.35,45.4 -101.35,101.3 V 13446 c 0,55.9 45.47,101.4 101.35,101.4 h 819.92 c 55.88,0 101.35,-45.5 101.35,-101.4 v -1264.4 c 0,-55.9 -45.47,-101.3 -101.35,-101.3"
         style="fill:#feb300;fill-opacity:1;fill-rule:nonzero;stroke:none"
         id="path26" />
      <path
         d="m 11641.6,10187.2 -49.2,7847.2 4760.3,2124.8 4547.8,-2156 -90.4,-7938.9 c -2.8,-107.4 -95.5,-192.8 -208.3,-191.9 l -8707.8,72.4 c -139.7,1.1 -252.4,109.3 -252.4,242.4"
         style="fill:#ffffff;fill-opacity:1;fill-rule:nonzero;stroke:none"
         id="path28" />
      <path
         d="m 11614.6,18020.1 49.1,-7832.8 v -0.1 c 0,-120.5 103.4,-219.3 230.5,-220.4 l 8707.8,-72.3 c 0.5,0 1.1,-0.1 1.6,-0.1 99.5,0 182,76.2 184.5,170.5 l 90.2,7924.4 -4525.9,2145.6 z m 8989,-8169.7 c -0.7,0 -1.3,0 -2,0 l -8707.7,72.3 c -151.2,1.3 -274.2,119.9 -274.3,264.4 l -49.2,7847.2 c -0.1,8.7 5.1,16.7 13,20.2 l 4760.3,2124.8 c 5.9,2.7 12.7,2.6 18.5,-0.2 l 4547.7,-2156 c 7.8,-3.7 12.7,-11.6 12.6,-20.2 l -90.4,-7938.9 c -3,-118.3 -105.3,-213.6 -228.5,-213.6"
         style="fill:#feb300;fill-opacity:1;fill-rule:nonzero;stroke:none"
         id="path30" />
      <path
         d="m 19259,15036.8 c -26.5,0 -48.2,-21.6 -48.2,-48.2 v -1280.3 c 0,-26.6 21.7,-48.2 48.2,-48.2 h 838.1 c 26.6,0 48.2,21.6 48.2,48.2 v 1280.3 c 0,26.6 -21.6,48.2 -48.2,48.2 z M 20097.1,13616 H 19259 c -50.8,0 -92.2,41.4 -92.2,92.3 v 1280.3 c 0,50.9 41.4,92.3 92.2,92.3 h 838.1 c 50.9,0 92.3,-41.4 92.3,-92.3 v -1280.3 c 0,-50.9 -41.4,-92.3 -92.3,-92.3"
         style="fill:#feb300;fill-opacity:1;fill-rule:nonzero;stroke:none"
         id="path32" />
      <path
         d="m 18118.2,15036.8 c -30.5,0 -55.3,-24.7 -55.3,-55.2 v -1266.3 c 0,-30.4 24.8,-55.2 55.3,-55.2 h 823.9 c 30.5,0 55.3,24.8 55.3,55.2 v 1266.3 c 0,30.5 -24.8,55.2 -55.3,55.2 z m 823.9,-1420.8 h -823.9 c -54.8,0 -99.4,44.6 -99.4,99.3 v 1266.3 c 0,54.8 44.6,99.3 99.4,99.3 h 823.9 c 54.8,0 99.3,-44.5 99.3,-99.3 v -1266.3 c 0,-54.7 -44.5,-99.3 -99.3,-99.3"
         style="fill:#feb300;fill-opacity:1;fill-rule:nonzero;stroke:none"
         id="path34" />
      <path
         d="m 19239,13458.1 c -15.6,0 -28.2,-12.6 -28.2,-28.1 v -1320.5 c 0,-15.5 12.6,-28.2 28.2,-28.2 h 878.1 c 15.6,0 28.2,12.7 28.2,28.2 V 13430 c 0,15.5 -12.6,28.1 -28.2,28.1 z m 878.1,-1420.8 H 19239 c -39.9,0 -72.3,32.4 -72.3,72.2 V 13430 c 0,39.8 32.4,72.2 72.3,72.2 h 878.1 c 39.9,0 72.3,-32.4 72.3,-72.2 v -1320.5 c 0,-39.8 -32.4,-72.2 -72.3,-72.2"
         style="fill:#feb300;fill-opacity:1;fill-rule:nonzero;stroke:none"
         id="path36" />
      <path
         d="m 18120.1,13458.1 c -31.5,0 -57.2,-25.7 -57.2,-57.3 v -1262.2 c 0,-31.6 25.7,-57.3 57.2,-57.3 h 820 c 31.6,0 57.3,25.7 57.3,57.3 v 1262.2 c 0,31.6 -25.7,57.3 -57.3,57.3 z m 820,-1420.8 h -820 c -55.8,0 -101.3,45.4 -101.3,101.3 v 1262.2 c 0,55.9 45.5,101.4 101.3,101.4 h 820 c 55.9,0 101.3,-45.5 101.3,-101.4 v -1262.2 c 0,-55.9 -45.4,-101.3 -101.3,-101.3"
         style="fill:#feb300;fill-opacity:1;fill-rule:nonzero;stroke:none"
         id="path38" />
      <path
         d="m 16392.3,18859.2 c -26.6,0 -48.2,-21.6 -48.2,-48.2 v -1009.2 c 0,-26.6 21.6,-48.2 48.2,-48.2 h 838 c 26.6,0 48.2,21.6 48.2,48.2 V 18811 c 0,26.6 -21.6,48.2 -48.2,48.2 z m 838,-1149.7 h -838 c -50.9,0 -92.3,41.4 -92.3,92.3 V 18811 c 0,50.9 41.4,92.3 92.3,92.3 h 838 c 50.9,0 92.3,-41.4 92.3,-92.3 v -1009.2 c 0,-50.9 -41.4,-92.3 -92.3,-92.3"
         style="fill:#feb300;fill-opacity:1;fill-rule:nonzero;stroke:none"
         id="path40" />
      <path
         d="m 15251.4,18859.2 c -30.5,0 -55.3,-24.8 -55.3,-55.3 v -995.1 c 0,-30.4 24.8,-55.2 55.3,-55.2 h 823.9 c 30.5,0 55.3,24.8 55.3,55.2 v 995.1 c 0,30.5 -24.8,55.3 -55.3,55.3 z m 823.9,-1149.7 h -823.9 c -54.8,0 -99.4,44.6 -99.4,99.3 v 995.1 c 0,54.8 44.6,99.4 99.4,99.4 h 823.9 c 54.8,0 99.4,-44.6 99.4,-99.4 v -995.1 c 0,-54.7 -44.6,-99.3 -99.4,-99.3"
         style="fill:#feb300;fill-opacity:1;fill-rule:nonzero;stroke:none"
         id="path42" />
      <path
         d="m 16372.2,17581.7 c -15.5,0 -28.2,-12.6 -28.2,-28.1 v -1049.4 c 0,-15.5 12.7,-28.1 28.2,-28.1 h 878.2 c 15.5,0 28.1,12.6 28.1,28.1 v 1049.4 c 0,15.5 -12.6,28.1 -28.1,28.1 z m 878.2,-1149.7 h -878.2 c -39.8,0 -72.2,32.4 -72.2,72.2 v 1049.4 c 0,39.8 32.4,72.2 72.2,72.2 h 878.2 c 39.8,0 72.2,-32.4 72.2,-72.2 v -1049.4 c 0,-39.8 -32.4,-72.2 -72.2,-72.2"
         style="fill:#feb300;fill-opacity:1;fill-rule:nonzero;stroke:none"
         id="path44" />
      <path
         d="m 15253.4,17581.7 c -31.6,0 -57.3,-25.6 -57.3,-57.2 v -991.2 c 0,-31.5 25.7,-57.2 57.3,-57.2 h 819.9 c 31.6,0 57.3,25.7 57.3,57.2 v 991.2 c 0,31.6 -25.7,57.2 -57.3,57.2 z m 819.9,-1149.7 h -819.9 c -55.9,0 -101.4,45.4 -101.4,101.3 v 991.2 c 0,55.9 45.5,101.3 101.4,101.3 h 819.9 c 55.9,0 101.3,-45.4 101.3,-101.3 v -991.2 c 0,-55.9 -45.4,-101.3 -101.3,-101.3"
         style="fill:#feb300;fill-opacity:1;fill-rule:nonzero;stroke:none"
         id="path46" />
      <path
         d="m 13419,15041.4 c -26.6,0 -48.2,-21.6 -48.2,-48.2 v -1282.5 c 0,-26.6 21.6,-48.2 48.2,-48.2 h 838.1 c 26.5,0 48.2,21.6 48.2,48.2 v 1282.5 c 0,26.6 -21.7,48.2 -48.2,48.2 z m 838.1,-1423 H 13419 c -50.9,0 -92.3,41.4 -92.3,92.3 v 1282.5 c 0,50.9 41.4,92.3 92.3,92.3 h 838.1 c 50.8,0 92.2,-41.4 92.2,-92.3 v -1282.5 c 0,-50.9 -41.4,-92.3 -92.2,-92.3"
         style="fill:#feb300;fill-opacity:1;fill-rule:nonzero;stroke:none"
         id="path48" />
      <path
         d="m 12278.1,15041.4 c -30.4,0 -55.2,-24.8 -55.2,-55.3 v -1268.3 c 0,-30.5 24.8,-55.3 55.2,-55.3 h 823.9 c 30.5,0 55.3,24.8 55.3,55.3 v 1268.3 c 0,30.5 -24.8,55.3 -55.3,55.3 z m 823.9,-1423 h -823.9 c -54.8,0 -99.3,44.6 -99.3,99.4 v 1268.3 c 0,54.8 44.5,99.4 99.3,99.4 h 823.9 c 54.8,0 99.4,-44.6 99.4,-99.4 v -1268.3 c 0,-54.8 -44.6,-99.4 -99.4,-99.4"
         style="fill:#feb300;fill-opacity:1;fill-rule:nonzero;stroke:none"
         id="path50" />
      <path
         d="m 13398.9,13460.3 c -15.5,0 -28.1,-12.6 -28.1,-28.1 v -1322.7 c 0,-15.5 12.6,-28.1 28.1,-28.1 h 878.2 c 15.5,0 28.1,12.6 28.1,28.1 v 1322.7 c 0,15.5 -12.6,28.1 -28.1,28.1 z m 878.2,-1423 h -878.2 c -39.8,0 -72.2,32.4 -72.2,72.2 v 1322.7 c 0,39.8 32.4,72.2 72.2,72.2 h 878.2 c 39.8,0 72.2,-32.4 72.2,-72.2 v -1322.7 c 0,-39.8 -32.4,-72.2 -72.2,-72.2"
         style="fill:#feb300;fill-opacity:1;fill-rule:nonzero;stroke:none"
         id="path52" />
      <path
         d="m 12280.1,13460.3 c -31.6,0 -57.3,-25.7 -57.3,-57.3 v -1264.4 c 0,-31.6 25.7,-57.2 57.3,-57.2 h 819.9 c 31.6,0 57.3,25.6 57.3,57.2 V 13403 c 0,31.6 -25.7,57.3 -57.3,57.3 z m 819.9,-1423 h -819.9 c -55.9,0 -101.4,45.4 -101.4,101.3 V 13403 c 0,55.9 45.5,101.4 101.4,101.4 h 819.9 c 55.9,0 101.4,-45.5 101.4,-101.4 v -1264.4 c 0,-55.9 -45.5,-101.3 -101.4,-101.3"
         style="fill:#feb300;fill-opacity:1;fill-rule:nonzero;stroke:none"
         id="path54" />
      <path
         d="m 16337.8,20898.4 5170.4,-2759.5 c 109.6,-58.5 130.4,-177.4 44.8,-256.3 l -197.6,-247.7 c -87.8,-110.1 -240.9,-143.1 -366.3,-78.9 L 16300,19955.1 c -31.3,16.1 -68.5,16.2 -99.9,0.3 l -4804.6,-2424.3 c -63.3,-31.9 -140.3,-16.1 -185.9,38.2 l -203.4,242.3 c -115.7,137.9 -68.1,322 107.1,414.7 l 5049,2672.4 c 54.9,29.1 120.7,28.9 175.5,-0.3"
         style="fill:#feb300;fill-opacity:1;fill-rule:nonzero;stroke:none"
         id="path56" />
      <path
         d="m 16249.8,20898.4 c -26.5,0 -53,-6.4 -77.1,-19.2 l -5049.1,-2672.3 c -83.3,-44.2 -139.6,-113.2 -154.5,-189.4 -13,-66.6 6.2,-134.7 54,-191.7 l 203.4,-242.3 c 39.2,-46.8 104.6,-60.2 159.1,-32.7 l 4804.6,2424.3 c 37.6,19 82.4,18.9 119.9,-0.4 l 4689.1,-2399.1 c 115.5,-59.1 258.1,-28.4 339,73.1 l 197.5,247.6 c 0.7,0.9 1.5,1.7 2.3,2.5 34.1,31.4 50,70.6 44.9,110.6 -5.7,44.1 -36.7,84.3 -85.1,110.1 l -5170.4,2759.4 c -24.3,13 -50.9,19.5 -77.6,19.5 z m -4923.4,-3405.9 c -50.3,0 -99.4,21.8 -133.7,62.7 l -203.4,242.3 c -56.5,67.4 -79.1,148.5 -63.5,228.4 17.5,89.4 82.1,169.5 177.2,219.9 l 5049,2672.4 c 61.5,32.5 134.8,32.4 196.2,-0.4 l 5170.4,-2759.4 c 61.2,-32.7 100.5,-84.9 108,-143.4 6.9,-54 -13.5,-106.3 -57.4,-147.5 l -196.6,-246.3 c -93.9,-117.8 -259.4,-153.5 -393.5,-84.9 L 16290,19935.5 c -25,12.8 -54.9,12.9 -80,0.3 l -4804.5,-2424.4 c -25.3,-12.7 -52.3,-18.9 -79.1,-18.9"
         style="fill:#ffffff;fill-opacity:1;fill-rule:nonzero;stroke:none"
         id="path58" />
      <path
         d="m 17369.7,9739.6 h -2342.6 c -73,0 -132.2,59.2 -132.2,132.3 v 5111.2 c 0,73 59.2,132.2 132.2,132.2 h 2342.6 c 73,0 132.2,-59.2 132.2,-132.2 V 9871.9 c 0,-73.1 -59.2,-132.3 -132.2,-132.3"
         style="fill:#ffffff;fill-opacity:1;fill-rule:nonzero;stroke:none"
         id="path60" />
      <path
         d="m 15027.1,15093.3 c -60.8,0 -110.2,-49.5 -110.2,-110.2 V 9871.9 c 0,-60.8 49.4,-110.2 110.2,-110.2 h 2342.6 c 60.7,0 110.2,49.4 110.2,110.2 v 5111.2 c 0,60.7 -49.5,110.2 -110.2,110.2 z m 2342.6,-5375.7 h -2342.6 c -85.1,0 -154.3,69.2 -154.3,154.3 v 5111.2 c 0,85 69.2,154.3 154.3,154.3 h 2342.6 c 85.1,0 154.3,-69.3 154.3,-154.3 V 9871.9 c 0,-85.1 -69.2,-154.3 -154.3,-154.3"
         style="fill:#feb300;fill-opacity:1;fill-rule:nonzero;stroke:none"
         id="path62" />
      <path
         d="m 17294.2,9937.5 -2154.8,-8 c -56,0 -101.4,45.4 -101.4,101.3 v 4833.3 c 0,56 45.4,101.3 101.4,101.3 l 2191.7,-2.6 c 40,-0.1 72.2,-33 71.3,-73 l -108.2,-4952.3"
         style="fill:#feb300;fill-opacity:1;fill-rule:nonzero;stroke:none"
         id="path64" />
      <path
         d="m 17829.5,9749.4 h -3251 c -34.5,0 -62.5,27.9 -62.5,62.4 v 343.9 c 0,34.5 28,62.4 62.5,62.4 h 3251 c 34.4,0 62.4,-27.9 62.4,-62.4 v -343.9 c 0,-34.5 -28,-62.4 -62.4,-62.4"
         style="fill:#ffffff;fill-opacity:1;fill-rule:nonzero;stroke:none"
         id="path66" />
      <path
         d="m 14578.5,10196.1 c -22.3,0 -40.4,-18.1 -40.4,-40.4 v -343.9 c 0,-22.2 18.1,-40.4 40.4,-40.4 h 3251 c 22.2,0 40.3,18.2 40.3,40.4 v 343.9 c 0,22.3 -18.1,40.4 -40.3,40.4 z m 3251,-468.7 h -3251 c -46.6,0 -84.5,37.8 -84.5,84.4 v 343.9 c 0,46.6 37.9,84.5 84.5,84.5 h 3251 c 46.5,0 84.4,-37.9 84.4,-84.5 v -343.9 c 0,-46.6 -37.9,-84.4 -84.4,-84.4"
         style="fill:#feb300;fill-opacity:1;fill-rule:nonzero;stroke:none"
         id="path68" />
      <path
         d="m 15744.2,10451.4 c -36.4,5.6 -63.3,36.8 -63.5,73.6 l -25,4116.2 c 0,15 10.8,27.7 25.5,30.2 l 1675.7,283.3 c 24.6,4.2 47,-14.8 46.9,-39.8 l -16.7,-4715.6 -1642.9,252.1"
         style="fill:#ffffff;fill-opacity:1;fill-rule:nonzero;stroke:none"
         id="path70" />
      <path
         d="m 17363.7,14933.3 c -1,0 -2.1,-0.1 -3.2,-0.3 l -1675.6,-283.3 c -4.2,-0.7 -7.2,-4.3 -7.2,-8.6 l 25,-4116 c 0.1,-26.1 19,-47.9 44.9,-51.9 l 1617.5,-248.3 16.7,4690.1 c 0,7.4 -4,11.9 -6.4,13.9 -2.1,1.8 -6.1,4.4 -11.7,4.4 z m 23.4,-4756.1 c -1.1,0 -2.2,0.1 -3.4,0.3 l -1642.8,252.1 c -47.4,7.3 -82,47.4 -82.3,95.3 l -25,4116.2 c 0.1,25.9 18.5,47.7 44,52 l 1675.6,283.4 c 18.1,3.1 36.6,-2 50.7,-14 14,-11.9 22,-29.2 21.9,-47.7 l -16.7,-4715.6 c 0,-6.4 -2.8,-12.5 -7.7,-16.7 -4,-3.4 -9.1,-5.3 -14.3,-5.3"
         style="fill:#feb300;fill-opacity:1;fill-rule:nonzero;stroke:none"
         id="path72" />
      <path
         d="m 20191.6,15799.6 h -8088 c -12.2,0 -22,9.8 -22,22 0,12.2 9.8,22 22,22 h 8088 c 12.2,0 22,-9.8 22,-22 0,-12.2 -9.8,-22 -22,-22"
         style="fill:#feb300;fill-opacity:1;fill-rule:nonzero;stroke:none"
         id="path74" />
      <path
         d="m 6303.84,8279.5 c -7.72,0 -15.21,4 -19.25,11.2 -5.95,10.7 -2.16,24.1 8.46,30 l 663.43,371.8 c 10.6,6 24.05,2.2 30,-8.4 5.96,-10.7 2.17,-24.1 -8.45,-30 l -663.44,-371.8 c -3.4,-1.9 -7.1,-2.8 -10.75,-2.8"
         style="fill:#feb300;fill-opacity:1;fill-rule:nonzero;stroke:none"
         id="path76" />
      <path
         d="m 9223.87,11731 c 219.45,-579.2 438.8,-2420.8 -405.9,-3562.6 C 7974.3,7028 5946.82,6420.2 4604.16,7317.4 c -1619.32,1082.2 -1386.38,3781.3 -400.41,4908.9 552.14,631.4 1078.84,470.9 1840.8,1376.6 760,903.5 611.1,1509.1 1276.14,1874.1 799.73,438.9 1967.05,92.9 2174.23,-381.8 185.28,-424.5 -406.41,-770.4 -519.5,-1762.6 -21.22,-186.2 -19.19,-339 -3.47,-473.9 69.35,-595.1 212.33,-1023.2 251.92,-1127.7"
         style="fill:#feb300;fill-opacity:1;fill-rule:nonzero;stroke:none"
         id="path78" />
      <path
         d="m 6955.72,15927.1 c 124.94,-184.3 224.61,-779.6 -52.46,-967.4 -277.07,-187.8 -825.97,103 -950.89,287.3 -124.93,184.3 -1.59,486 275.47,673.8 277.08,187.8 602.96,190.6 727.88,6.3"
         style="fill:#feb300;fill-opacity:1;fill-rule:nonzero;stroke:none"
         id="path80" />
      <path
         d="m 6256.12,9760.4 c 0,0 -599.68,1507.2 -246.37,1825.2 18.49,16.7 257.17,41.1 501.58,-182.6 230.75,-211.1 468.49,-670.5 468.49,-670.5 l 78.4,-1040.4 -802.1,68.3"
         style="fill:#ffffff;fill-opacity:1;fill-rule:nonzero;stroke:none"
         id="path82" />
      <path
         d="m 6271.67,9781.2 762.63,-65 -76.11,1010.1 c -23.81,45.2 -247.78,464.7 -461.73,660.5 -230.44,210.8 -447.73,192 -473.26,181.3 -318.62,-291.7 192.03,-1641.2 248.47,-1786.9 z M 7058.22,9670 c -0.63,0 -1.25,0 -1.88,0.1 l -802.09,68.4 c -8.32,0.7 -15.51,6 -18.6,13.8 -24.72,62.1 -601.22,1525.1 -240.65,1849.7 33.06,29.8 284.21,43.3 531.21,-182.7 230.98,-211.4 463.4,-657.8 473.19,-676.7 1.36,-2.6 2.18,-5.5 2.4,-8.4 l 78.39,-1040.5 c 0.48,-6.4 -1.87,-12.8 -6.47,-17.3 -4.14,-4.1 -9.73,-6.4 -15.5,-6.4"
         style="fill:#feb300;fill-opacity:1;fill-rule:nonzero;stroke:none"
         id="path84" />
      <path
         d="m 10817.2,12496.1 c 0,0 233.7,-50.3 417.4,-334 366.6,-566 933.1,-1595.5 1839.6,-1749.3 1360.8,-230.9 2185.2,1424.7 2068.2,1795.6 0,0 -195.3,259.6 -516.5,337.9 0,0 -3.3,258.7 275.8,136.2 279.1,-122.5 390.9,-47.7 515.7,-18.4 219.4,51.4 685.5,578.4 859.2,645.4 173.6,67 119.4,-77.8 119.4,-77.8 0,0 170.2,191.5 287.4,95.5 l -250,-330.4 c 0,0 202.2,267.2 319.4,133 l -523.1,-612.1 383.4,301 c 0,0 53.3,-58.8 -46.9,-163 -100.2,-104.2 -507.8,-672.5 -898.1,-672.5 0,0 210.2,-3135.3 -2137.4,-3262.6 -2017,-109.4 -2838.3,1517.7 -2838.3,1517.7 l 124.8,2257.8"
         style="fill:#ffffff;fill-opacity:1;fill-rule:nonzero;stroke:none"
         id="path86" />
      <path
         d="m 10714.7,10243.1 c 25.5,-48.1 234.2,-426.9 656.2,-789.2 414.2,-355.4 1124.9,-767.4 2158.6,-711.3 572.3,31 1039.7,246.9 1389.2,641.5 828.6,935.5 728.5,2581.1 727.4,2597.6 -0.4,6.1 1.8,12.1 5.9,16.6 4.2,4.4 10,6.9 16.1,6.9 320.6,0 654.6,397.5 815.2,588.4 28.6,34.1 51.2,61 67,77.4 51.8,53.9 57.5,91.6 54.2,112.9 l -361.2,-283.6 c -8.9,-7 -21.6,-6.1 -29.5,2.1 -7.8,8.2 -8.2,21 -0.8,29.6 l 509.6,596.4 c -15.1,12.1 -32.1,17.5 -51.4,17 -82.2,-2.8 -186.9,-117.8 -220.3,-161.9 v -0.1 0 c -7.4,-9.6 -21.1,-11.5 -30.8,-4.2 -7.6,5.8 -10.4,15.4 -7.8,24 0,0 0,0 0,0.1 0.7,2.4 1.9,4.7 3.5,6.8 l 235.9,311.7 c -99.4,50.6 -237.8,-103.1 -239.2,-104.8 -7.1,-7.9 -18.8,-9.7 -27.9,-4.2 -9.1,5.5 -13,16.7 -9.2,26.6 5,13.5 11.9,47.3 -0.2,59.2 -4.3,4.3 -23.7,16.2 -90.7,-9.7 -72.4,-27.9 -204.7,-145.7 -344.8,-270.3 -191.1,-170 -388.6,-345.8 -517.3,-376 -20.1,-4.7 -39.8,-10.6 -60.7,-16.9 -107.2,-32.3 -228.8,-68.8 -468.9,36.6 -82.9,36.4 -146,41 -187.5,13.5 -42.7,-28.3 -53.6,-84.6 -56.4,-112.6 314.4,-84 503.1,-330.9 511.1,-341.5 1.6,-2 2.7,-4.3 3.5,-6.7 64.5,-204.6 -131.2,-739.9 -515.3,-1180.7 -228.2,-261.9 -683,-665.4 -1317.8,-665.4 -83.6,-0.1 -170.2,6.9 -259.9,22.2 -830.7,140.9 -1381.1,1011.6 -1745.3,1587.8 -38.2,60.4 -74.5,117.9 -109.1,171.2 -141.4,218.4 -314.6,295 -378.4,316.9 z m 2625.9,-1549.7 c -946.2,0 -1605.4,389.4 -1999.8,728.3 -455.5,391.4 -666,802.6 -668.1,806.7 -1.7,3.4 -2.5,7.3 -2.3,11.1 l 124.8,2257.9 c 0.4,6.4 3.5,12.4 8.6,16.3 5.2,3.9 11.8,5.3 18.1,4 9.9,-2.1 244.7,-55.6 431.2,-343.6 34.6,-53.5 71,-111.1 109.3,-171.6 360.1,-569.6 904.2,-1430.3 1715.5,-1568 749.9,-127.2 1284.9,339.3 1537.1,628.8 390.9,448.7 557.9,960.3 507.5,1134.8 -22.7,28.6 -210.7,255.8 -501.8,326.8 -9.8,2.4 -16.7,11.1 -16.8,21.1 -0.1,4.7 -0.6,115.1 77.1,166.6 54.8,36.2 132,32.9 229.5,-9.9 225.3,-98.9 333.7,-66.3 438.5,-34.8 21.5,6.5 41.9,12.6 63.3,17.6 117.8,27.6 319.9,207.4 498.1,366 149.4,132.9 278.4,247.7 358.2,278.5 66.6,25.7 111.6,25.7 137.7,-0.1 11.3,-11.2 16.7,-25.3 18.8,-39.5 63,54.3 179.1,130.1 272.3,53.8 9.1,-7.5 10.7,-20.9 3.6,-30.3 l -112.5,-148.6 c 26.4,13.9 54,23.2 81.1,24.2 39,1.2 72.5,-13.9 99.8,-45.2 7.2,-8.3 7.3,-20.5 0.2,-28.9 l -379,-443.4 208.9,164 c 9.1,7.1 22.1,6.1 29.9,-2.5 2.7,-3 65.8,-75.4 -47.3,-193.1 -14.8,-15.3 -37,-41.7 -65.1,-75.1 -161.1,-191.7 -492.4,-585.8 -825.7,-603.5 9,-204.2 47.2,-1718.6 -739.6,-2606.9 -357.6,-403.8 -835.3,-624.6 -1419.8,-656.3 -65,-3.5 -128.8,-5.2 -191.3,-5.2"
         style="fill:#feb300;fill-opacity:1;fill-rule:nonzero;stroke:none"
         id="path88" />
      <path
         d="m 15957.4,12762.5 c -5.6,0 -11.2,2.1 -15.4,6.4 -8.7,8.5 -8.9,22.4 -0.3,31.1 l 438.6,447.1 c 8.5,8.7 22.5,8.8 31.1,0.3 8.7,-8.5 8.8,-22.5 0.3,-31.2 l -438.6,-447 c -4.3,-4.4 -10,-6.7 -15.7,-6.7"
         style="fill:#feb300;fill-opacity:1;fill-rule:nonzero;stroke:none"
         id="path90" />
      <path
         d="m 16135.9,12672.1 c -5.5,0 -11.1,2.1 -15.4,6.3 -8.7,8.5 -8.8,22.5 -0.3,31.2 l 297.5,302.7 c 8.5,8.6 22.4,8.8 31.1,0.2 8.7,-8.5 8.8,-22.5 0.3,-31.1 l -297.5,-302.7 c -4.3,-4.4 -10,-6.6 -15.7,-6.6"
         style="fill:#feb300;fill-opacity:1;fill-rule:nonzero;stroke:none"
         id="path92" />
      <path
         d="m 15353.5,12185.3 c -3,0 -6.1,0.7 -9,2 -11.1,5 -16.1,18.1 -11.1,29.2 5.5,12 136,294.9 348.7,251.3 189.6,-38.8 323.8,9.9 325.1,10.4 11.4,4.3 24.1,-1.5 28.4,-12.9 4.2,-11.4 -1.6,-24.1 -13,-28.4 -5.9,-2.2 -147.6,-53.6 -349.3,-12.3 -178.7,36.6 -298.5,-223.6 -299.7,-226.3 -3.7,-8.1 -11.7,-13 -20.1,-13"
         style="fill:#feb300;fill-opacity:1;fill-rule:nonzero;stroke:none"
         id="path94" />
      <path
         d="m 6009.75,11585.6 c 0,0 4130.75,1157.9 4965.65,1018.7 l 292,-1946.3 552.4,-1489 c 158.8,-428 68.9,-910.8 -239.1,-1247.7 -344.3,-376.5 -916.6,-774.6 -1813.13,-814.9 C 8026.99,7028 7180.28,6599 7088,7368.2 c -92.28,769.2 -201.98,2614.2 -201.98,2614.2 -278.26,734 -616.87,1582.1 -876.27,1603.2"
         style="fill:#ffffff;fill-opacity:1;fill-rule:nonzero;stroke:none"
         id="path96" />
      <path
         d="m 6085.11,11583.7 c 252.45,-139.9 543.3,-859.5 821.52,-1593.5 0.78,-2.1 1.26,-4.3 1.39,-6.5 1.1,-18.4 110.72,-1853.2 201.86,-2612.9 18.74,-156.2 67.9,-260.7 154.7,-328.7 199.87,-156.6 595.14,-108 1193.41,-34.6 354.65,43.6 796.03,97.8 1308.59,120.9 913.12,41.1 1481.62,461.9 1797.82,807.7 302.4,330.8 392.4,800.3 234.7,1225.3 l -552.4,1488.9 c -0.5,1.4 -0.9,2.9 -1.1,4.4 l -289.6,1930.2 c -793.5,111.5 -4329.02,-851.6 -4870.89,-1001.2 z M 7695.03,6894.6 c -199.99,0 -351.78,29.9 -457.65,112.8 -95.29,74.7 -151.31,191.8 -171.25,358.1 -89.46,745.6 -196.56,2522.9 -201.91,2612.2 -207.97,548.6 -593.57,1564.6 -856.26,1586 -10.64,0.8 -19.13,9.2 -20.16,19.8 -1.02,10.6 5.72,20.5 15.99,23.3 168.88,47.4 4145.11,1157.7 4975.21,1019.2 9.4,-1.6 16.7,-9 18.1,-18.5 l 291.7,-1944 551.6,-1486.8 c 163.5,-440.5 70.2,-927.3 -243.5,-1270.3 -321.7,-351.9 -900.2,-780.2 -1828.34,-822.1 -510.86,-23 -951.3,-77 -1305.21,-120.5 -308.22,-37.9 -563.53,-69.2 -768.32,-69.2"
         style="fill:#feb300;fill-opacity:1;fill-rule:nonzero;stroke:none"
         id="path98" />
      <path
         d="m 8810.87,12910.8 c 149.08,-23.8 293.62,0.7 366.97,66.8 90.44,81.4 82.81,198.2 93.06,342.4 4.28,60.3 4.73,129.5 49.9,200.5 23.94,37.7 54.22,65.9 84.54,87.3 37.29,26.2 48.49,76.6 27.09,116.8 l -16.86,23 c -132.6,180.8 -194.68,503 -173.29,838.2 l -92.72,171.1 c -257.12,37.9 -461.81,25.6 -485.04,-19.2 -8.55,-16.5 -23.84,-29.7 -7.39,-95.8 79.4,-319.1 -216.07,-354.1 -470.76,-352 -254.71,2.1 -64.88,-424.4 -64.88,-424.4 0,0 -194.96,157.8 -321.6,-49 -90.74,-148.3 187.37,-290.3 352.29,-358.9 0,0 2.04,-1037.1 -207.96,-1175.5 l -583,-371.2 c 0,0 1275.77,-310.9 2154.61,434.5 0,0 -390.67,-20.8 -562.53,112.2 -171.87,132.9 -124.93,419.6 -142.43,453.2"
         style="fill:#ffffff;fill-opacity:1;fill-rule:nonzero;stroke:none"
         id="path100" />
      <path
         d="m 7418.82,11921.5 c 242.75,-46.2 1277.25,-197.3 2033.72,400.6 -120.27,0.1 -377.64,13.5 -512.73,118 -139.02,107.6 -143.29,303.1 -145.59,408.1 -0.49,22.1 -1.04,47.1 -3.21,53.2 -3.84,7.3 -3.03,15.9 1.84,22.7 4.87,6.7 13.26,9.8 21.51,8.5 144.68,-23.2 281.6,0.9 348.73,61.4 70.97,63.9 75.94,154 82.22,268.1 1.07,19.2 2.16,39.1 3.61,59.5 l 1.08,16.3 c 3.79,58.6 8.08,125.1 52.19,194.4 22.78,35.8 53.23,67.3 90.47,93.5 27.52,19.4 36.41,56.6 21,87.2 l -15.86,21.6 c -132.8,181 -199.16,497 -177.9,846.2 l -84.45,155.9 c -272.36,38.9 -438.4,15 -451.37,-9.2 -1.2,-2.3 -2.52,-4.6 -3.87,-6.9 -6.87,-11.8 -13.98,-24 -1.69,-73.4 26.25,-105.4 14.79,-190.3 -34.03,-252.2 -90.83,-115.3 -292.41,-128.4 -458.3,-127.1 -42.98,0.1 -72.56,-12.6 -90.14,-39.4 -54.66,-83.3 14.37,-283.8 45.58,-354 4.13,-9.3 1.35,-20.2 -6.71,-26.4 -8.05,-6.3 -19.33,-6.1 -27.26,0.2 -0.81,0.7 -82.54,65.3 -167.8,50.5 -47.3,-8.2 -88.07,-39.8 -121.16,-93.8 -15.22,-24.9 -18.44,-49.8 -9.85,-76.3 25.24,-77.9 150.18,-166.9 351.79,-250.8 8.2,-3.4 13.55,-11.4 13.57,-20.3 0.09,-42.8 -0.43,-1050.6 -217.86,-1193.9 z m 572.6,-95.1 c -367.09,-0.1 -629.63,61.7 -635.42,63.1 -8.57,2.1 -15.09,9.1 -16.53,17.8 -1.43,8.8 2.47,17.5 9.91,22.2 l 583,371.2 c 161.12,106.2 197.14,846.5 197.76,1142.2 -148.66,63.1 -326.8,159.9 -363.22,272.2 -12.62,38.9 -7.85,76.9 14.18,112.9 40.08,65.4 91.05,103.9 151.53,114.3 55.19,9.5 107.17,-6.5 144.7,-24.3 -31.09,88 -74.76,248.3 -18.15,334.7 26.08,39.8 69.28,59.2 127.37,59.2 155.66,-1.2 344.35,10.2 423.32,110.4 40.51,51.3 48.98,121.4 25.89,214.3 -15.35,61.6 -5.75,85.4 6.35,106.2 0.99,1.7 1.96,3.3 2.85,5 34.96,67.5 287.77,63.3 507.81,30.9 6.88,-1 12.86,-5.2 16.17,-11.3 l 92.73,-171.1 c 1.97,-3.7 2.87,-7.8 2.61,-11.9 -21.5,-336.7 43.28,-652.3 169.05,-823.8 l 16.87,-22.9 c 0.62,-0.9 1.19,-1.8 1.69,-2.7 26.75,-50.4 12.2,-112.8 -33.85,-145.2 -32.52,-22.9 -58.99,-50.2 -78.66,-81.1 -38.05,-59.8 -41.78,-117.7 -45.39,-173.6 l -1.1,-16.7 c -1.44,-20.1 -2.52,-39.7 -3.56,-58.8 -6.58,-119.3 -12.26,-222.3 -96.76,-298.4 -72.95,-65.7 -207.25,-94.1 -355.41,-76.3 0.52,-9.6 0.81,-21.3 1.13,-35.7 2.13,-97.7 6.12,-279.5 128.49,-374.2 163.5,-126.5 544.09,-107.8 547.88,-107.6 9.37,0.6 18.15,-5.1 21.65,-13.9 3.49,-8.7 0.98,-18.8 -6.22,-24.9 -482.92,-409.6 -1089.15,-502.2 -1538.67,-502.2"
         style="fill:#feb300;fill-opacity:1;fill-rule:nonzero;stroke:none"
         id="path102" />
      <path
         d="m 8810.91,12888.8 c -0.75,0 -1.51,0 -2.26,0.1 -288.71,29.4 -485.91,371.3 -494.16,385.9 -6,10.5 -2.3,24 8.29,30 10.58,6 24.03,2.3 30.04,-8.3 1.91,-3.3 194.34,-336.7 460.28,-363.7 12.12,-1.3 20.93,-12.1 19.7,-24.2 -1.16,-11.3 -10.73,-19.8 -21.89,-19.8"
         style="fill:#feb300;fill-opacity:1;fill-rule:nonzero;stroke:none"
         id="path104" />
      <path
         d="m 11279.6,7958.6 c -38.4,92.5 -128.4,153.7 -228.6,153.7 -935.8,-0.3 -1885.84,-234.1 -2851.07,-714.9 -82.45,-41 -150.47,-106.2 -195.07,-186.8 -176.93,-319.8 -649.07,-1209.4 -890.65,-2014.1 -86.13,-286.9 -178.57,-657.8 -253.13,-974.1 58.45,-30.7 117.18,-60.9 176.47,-90 1056.53,-519.1 2241.6,-782.4 3522.25,-782.4 0.2,0 0.1,0 0.3,0 721.9,0 1440.7,85.5 2130.9,233.3 -323.9,1684.4 -1172.4,3798.3 -1411.4,4375.3"
         style="fill:#feb300;fill-opacity:1;fill-rule:nonzero;stroke:none"
         id="path106" />
      <path
         d="M 12808.9,7376 H 9713.19 c -96.13,0 -169.38,87.3 -154,183.6 l 665.81,4167.6 c 12.2,76.6 77.4,133 154,133 h 3095.7 c 96.1,0 169.4,-87.4 154,-183.7 l -665.8,-4167.6 c -12.2,-76.6 -77.5,-132.9 -154,-132.9"
         style="fill:#feb300;fill-opacity:1;fill-rule:nonzero;stroke:none"
         id="path108" />
      <path
         d="M 12710.5,7386.8 H 9614.82 c -96.13,0 -169.39,87.2 -154.01,183.3 l 665.79,4160.4 c 12.2,76.5 77.5,132.7 154,132.7 h 3095.7 c 96.1,0 169.4,-87.2 154,-183.3 l -665.8,-4160.4 c -12.2,-76.5 -77.4,-132.7 -154,-132.7"
         style="fill:#ffffff;fill-opacity:1;fill-rule:nonzero;stroke:none"
         id="path110" />
      <path
         d="m 10280.6,11841.2 c -66,0 -121.7,-48 -132.2,-114.2 L 9482.57,7566.6 c -6.38,-39.9 4.9,-80.3 30.95,-110.8 25.47,-29.9 62.39,-47 101.3,-47 h 3095.68 c 66.1,0 121.7,48 132.3,114.2 l 665.8,4160.4 c 6.3,39.9 -4.9,80.2 -31,110.8 -25.4,29.8 -62.4,47 -101.3,47 z M 12710.5,7364.7 H 9614.82 c -51.84,0 -100.98,22.8 -134.84,62.5 -34.43,40.4 -49.36,93.7 -40.93,146.4 l 665.75,4160.4 c 14.1,87.6 88,151.3 175.8,151.3 h 3095.7 c 51.9,0 101,-22.8 134.9,-62.5 34.4,-40.4 49.3,-93.7 40.9,-146.4 L 12886.3,7516 c -14,-87.6 -87.9,-151.3 -175.8,-151.3"
         style="fill:#feb300;fill-opacity:1;fill-rule:nonzero;stroke:none"
         id="path112" />
      <path
         d="m 10280.6,11835.8 c -66,0 -121.7,-48 -132.2,-114.1 L 9482.57,7566.4 c -6.37,-39.8 4.88,-80.1 30.88,-110.6 25.47,-29.9 62.41,-47 101.37,-47 h 3095.68 c 66.1,0 121.7,48 132.3,114.1 l 665.8,4155.3 c 6.3,39.8 -4.9,80.1 -30.9,110.6 -25.5,29.8 -62.4,47 -101.4,47 z M 12710.5,7364.7 H 9614.82 c -51.88,0 -101.06,22.8 -134.91,62.5 -34.38,40.4 -49.28,93.6 -40.86,146.1 l 665.75,4155.4 c 14.1,87.6 88,151.1 175.8,151.1 h 3095.7 c 51.9,0 101.1,-22.7 134.9,-62.4 34.4,-40.4 49.3,-93.6 40.9,-146.2 l -665.8,-4155.3 c -14,-87.6 -87.9,-151.2 -175.8,-151.2"
         style="fill:#feb300;fill-opacity:1;fill-rule:nonzero;stroke:none"
         id="path114" />
      <path
         d="M 12204.4,11476.8 H 11307 c -143.4,0 -252.4,130.5 -228.5,273.5 l 21,125.4 c 2.1,12.8 13,22.1 25.7,22.1 h 1382.3 c 16.2,0 28.5,-14.7 25.8,-30.9 l -21.3,-127 c -25.4,-151.9 -155.4,-263.1 -307.6,-263.1"
         style="fill:#ffffff;fill-opacity:1;fill-rule:nonzero;stroke:none"
         id="path116" />
      <path
         d="m 11125.2,11875.8 c -1.9,0 -3.6,-1.6 -4,-3.7 l -21,-125.4 c -10.4,-62.4 7,-125.7 47.6,-173.7 39.9,-47.1 97.9,-74.1 159.2,-74.1 h 897.4 c 141.9,0 262.2,102.8 285.9,244.6 l 21.2,127.1 c 0.3,1.7 -0.4,3 -1,3.7 -0.5,0.7 -1.5,1.5 -3,1.5 z m 1079.2,-421 H 11307 c -74.3,0 -144.5,32.7 -192.8,89.7 -49.1,57.9 -70,134.3 -57.4,209.5 l 20.9,125.4 c 3.9,23.4 23.9,40.4 47.5,40.4 h 1382.3 c 14.1,0 27.5,-6.2 36.6,-17 9.3,-10.9 13.3,-25.3 10.9,-39.5 l -21.2,-127.1 c -27.3,-163 -165.8,-281.4 -329.4,-281.4"
         style="fill:#feb300;fill-opacity:1;fill-rule:nonzero;stroke:none"
         id="path118" />
      <path
         d="m 11757.1,12034.6 0.4,2.6 c 7.2,43.7 44.5,75.7 88.1,75.7 55.3,0 97.4,-50.4 88.2,-105.8 l -0.4,-2.5 c -7.2,-43.8 -44.5,-75.8 -88.2,-75.8 -55.3,0 -97.3,50.5 -88.1,105.8 z m -156.8,-411.3 h 383.2 c 14.6,0 26.9,9.6 29.3,24.1 l 52.5,339 c 21,134.9 -81.6,257.1 -216.1,257.1 -107.6,0 -199.2,-79.1 -216.1,-187 L 11571,11657 c -2.9,-18.3 11,-33.7 29.3,-33.7"
         style="fill:#ffffff;fill-opacity:1;fill-rule:nonzero;stroke:none"
         id="path120" />
      <path
         d="m 11757.1,12034.7 h 0.2 z m 88.5,56.2 c -32.9,0 -60.9,-24.1 -66.4,-57.3 l -0.4,-2.5 c -3.3,-20.3 2.3,-40.9 15.5,-56.5 12.8,-15.1 31.4,-23.7 50.9,-23.7 33,0 60.9,24.1 66.4,57.3 l 0.4,2.5 c 3.4,20.3 -2.2,40.9 -15.4,56.5 -12.8,15 -31.4,23.7 -51,23.7 z m -0.4,-184.1 c -32.5,0 -63.3,14.3 -84.5,39.3 -21.6,25.5 -30.8,59 -25.4,92.2 l 0.4,2.5 c 9.1,54.6 55.3,94.2 109.9,94.2 32.6,0 63.4,-14.3 84.6,-39.3 21.6,-25.5 30.8,-59.1 25.3,-92.2 l -0.4,-2.5 c -9,-54.6 -55.2,-94.2 -109.9,-94.2 z m 4,314.7 c -97.3,0 -179,-70.8 -194.3,-168.4 l -62.1,-399.5 c -0.3,-2.3 0.1,-4.2 1.4,-5.7 0.8,-0.9 2.7,-2.5 6.1,-2.5 h 383.2 c 1.1,0 6.7,0.2 7.5,5.5 l 52.5,338.9 c 9.2,58.7 -7.6,118.1 -46,163 -37.4,43.6 -91.4,68.7 -148.3,68.7 z m 134.3,-620.2 h -383.2 c -15.4,0 -29.9,6.6 -39.6,18 -9.6,11.3 -13.8,26.3 -11.4,41.2 l 62.1,399.4 c 18.6,119.2 118.6,205.7 237.8,205.7 69.8,0 136,-30.7 181.8,-84.2 46.8,-54.6 67.2,-127 56.1,-198.4 l -52.6,-338.9 c -3.9,-24.9 -25.4,-42.8 -51,-42.8"
         style="fill:#feb300;fill-opacity:1;fill-rule:nonzero;stroke:none"
         id="path122" />
      <path
         d="m 10774.2,9687.2 c -184.4,138.2 -787,540.4 -1000.13,415 -141.84,-83.4 -281.58,-212.5 -394.99,-578.3 l -2411.83,-850.6 6.74,733.9 c 3.22,350.6 -75.67,697.1 -230.36,1011.7 l -450.43,916.3 c -281.21,-185.7 -501.15,-452.1 -623.49,-766 -495.52,-1271.7 -355.72,-3560.9 120.58,-3681.1 1279.79,-322.7 3753.91,2244.4 3753.91,2244.4 0,0 673.2,3.3 805.1,16.5 546.6,55.1 548.6,445.5 424.9,538.2"
         style="fill:#ffffff;fill-opacity:1;fill-rule:nonzero;stroke:none"
         id="path124" />
      <path
         d="m 6284.55,11302.8 c -272.07,-185.4 -477.29,-441.4 -594.32,-741.6 -191.15,-490.6 -303.74,-1187.8 -308.9,-1912.8 -4.75,-668.7 85.05,-1264 234.37,-1553.6 55.03,-106.7 115.58,-169.1 179.98,-185.3 1252.72,-315.9 3708,2212.8 3732.65,2238.3 4.14,4.3 9.82,6.8 15.77,6.8 6.72,0 673.7,3.3 803,16.4 355.1,35.7 441.1,211 461.6,284.7 26.6,95.7 -4.7,181.6 -47.7,213.8 -205.4,153.9 -781.2,528.3 -975.74,413.7 -133.21,-78.4 -272.06,-201.1 -385.13,-565.8 -2.07,-6.7 -7.15,-12 -13.72,-14.3 L 6974.58,8652.5 c -6.8,-2.4 -14.3,-1.3 -20.14,2.9 -5.85,4.1 -9.29,10.9 -9.23,18.1 l 6.74,733.9 c 3.18,345.4 -75.7,691.8 -228.09,1001.8 z M 6032.09,6837.6 c -87.72,0 -170.14,9.7 -247.19,29.2 -77.2,19.4 -147.31,89.4 -208.38,207.8 -321.37,623.2 -343.87,2433.7 72.65,3502.6 123.31,316.4 341.82,584.9 631.89,776.3 5.29,3.5 11.82,4.6 17.91,2.9 6.11,-1.6 11.21,-5.8 14,-11.5 l 450.44,-916.3 c 155.41,-316.1 235.85,-669.4 232.62,-1021.6 l -6.45,-702.5 2371.76,836.5 c 116.95,370.9 262.04,498.1 401.57,580.2 259.49,152.7 993.39,-393.1 1024.59,-416.4 65.3,-49 92.1,-158.7 63.7,-260.9 -23,-82.4 -117.6,-278.3 -499.7,-316.8 C 10227,9114.6 9638.24,9111 9553.57,9110.5 9485.13,9040.4 8889.21,8434.7 8160.64,7871.9 7270.73,7184.3 6556.56,6837.6 6032.09,6837.6"
         style="fill:#feb300;fill-opacity:1;fill-rule:nonzero;stroke:none"
         id="path126" />
      <path
         d="m 10840.4,9502.7 c -2.3,0 -4.7,0.4 -7.1,1.2 l -840.38,288.2 c -11.51,4 -17.65,16.5 -13.7,28 3.93,11.5 16.43,17.7 27.98,13.7 l 840.4,-288.2 c 11.5,-3.9 17.6,-16.4 13.7,-28 -3.1,-9.1 -11.7,-14.9 -20.9,-14.9"
         style="fill:#feb300;fill-opacity:1;fill-rule:nonzero;stroke:none"
         id="path128" />
      <path
         d="m 10792.9,9345.1 c -2.1,0 -4.2,0.3 -6.3,0.9 l -820.04,243.8 c -11.67,3.5 -18.31,15.7 -14.84,27.4 3.45,11.7 15.72,18.3 27.41,14.9 l 820.07,-243.9 c 11.6,-3.4 18.3,-15.7 14.8,-27.4 -2.8,-9.5 -11.6,-15.7 -21.1,-15.7"
         style="fill:#feb300;fill-opacity:1;fill-rule:nonzero;stroke:none"
         id="path130" />
      <path
         d="m 10636.6,9205.9 c -2,0 -4,0.3 -6,0.8 -268.1,74.7 -677.45,186.7 -706.43,189.7 -12.17,0 -21.51,9.8 -21.51,22 0,12.2 10.4,22 22.56,22 28.05,0 556.08,-146.3 717.28,-191.2 11.7,-3.2 18.5,-15.4 15.3,-27.1 -2.7,-9.8 -11.6,-16.2 -21.2,-16.2"
         style="fill:#feb300;fill-opacity:1;fill-rule:nonzero;stroke:none"
         id="path132" />
      <path
         d="m 10388.6,20139.2 c -4.1,0 -8.4,1.2 -12.1,3.7 -10.2,6.7 -13,20.4 -6.3,30.5 253.7,384.4 326.8,845.5 230,1451.1 -1.9,12 6.3,23.3 18.3,25.2 12,2 23.3,-6.3 25.2,-18.3 98.6,-617.1 23.4,-1088.1 -236.7,-1482.3 -4.2,-6.4 -11.2,-9.9 -18.4,-9.9"
         style="fill:#feb300;fill-opacity:1;fill-rule:nonzero;stroke:none"
         id="path134" />
      <path
         d="m 8572.31,18903.5 c -8.91,0 -17.31,5.4 -20.63,14.3 -4.28,11.4 1.48,24.1 12.87,28.4 92.46,34.7 182.07,72 266.36,110.7 796.39,365.7 1271.09,710.1 1539.29,1116.5 6.8,10.2 20.4,13 30.6,6.3 10.1,-6.7 12.9,-20.4 6.2,-30.6 -273,-413.7 -753.38,-762.9 -1557.68,-1132.3 -85.24,-39.1 -175.83,-76.8 -269.25,-111.9 -2.57,-1 -5.18,-1.4 -7.76,-1.4"
         style="fill:#ffffff;fill-opacity:1;fill-rule:nonzero;stroke:none"
         id="path136" />
      <path
         d="m 3449.91,16532.1 c -9.11,0 -17.62,5.7 -20.81,14.8 -3.5,10 -85.56,248.8 -46.52,553.4 36.12,281.6 187.78,672.5 705.24,935.2 461.05,234 1209.29,324.4 2001.47,420.1 808.21,97.6 1724.26,208.2 2475.26,490.6 11.4,4.2 24.09,-1.5 28.38,-12.9 4.29,-11.4 -1.48,-24.1 -12.86,-28.4 -755.97,-284.2 -1674.82,-395.2 -2485.49,-493.1 -788.22,-95.2 -1532.7,-185.1 -1986.81,-415.6 -401,-203.6 -630.2,-506.3 -681.24,-899.8 -38.2,-294.6 43.35,-532.6 44.18,-535 4.01,-11.5 -2.04,-24 -13.53,-28 -2.4,-0.9 -4.87,-1.3 -7.27,-1.3"
         style="fill:#feb300;fill-opacity:1;fill-rule:nonzero;stroke:none"
         id="path138" />
      <path
         d="m 4029.93,17485.2 c 0,0 354.45,462.8 753.56,530.6 0,0 224.28,-1120.5 241.19,-1350 0,0 -654.86,176.5 -994.75,819.4"
         style="fill:#ffffff;fill-opacity:1;fill-rule:nonzero;stroke:none"
         id="path140" />
      <path
         d="m 4056.19,17482.8 c 290.9,-538.1 811.74,-741.9 943.4,-786.1 -29.03,260.6 -203.78,1144.3 -233.45,1293.4 -343.86,-70.9 -654.47,-438.6 -709.95,-507.3 z m 968.49,-839.1 c -1.92,0 -3.85,0.3 -5.74,0.8 -6.64,1.8 -668.05,186.5 -1008.48,830.4 -4.02,7.6 -3.25,16.8 1.98,23.7 14.69,19.1 364.34,470.5 767.36,539 11.84,2 22.97,-5.8 25.3,-17.4 9.17,-45.8 224.74,-1124.5 241.55,-1352.8 0.53,-7.1 -2.43,-14.1 -7.94,-18.6 -3.99,-3.3 -8.96,-5.1 -14.03,-5.1"
         style="fill:#feb300;fill-opacity:1;fill-rule:nonzero;stroke:none"
         id="path142" />
      <path
         d="m 5581.61,18201.9 1021.68,140.9 c 0,0 -273.43,-1054.3 -422.2,-1366.1 0,0 -385.21,604.5 -599.48,1225.2"
         style="fill:#ffffff;fill-opacity:1;fill-rule:nonzero;stroke:none"
         id="path144" />
      <path
         d="m 5611.28,18183.7 c 182.99,-518.3 483.94,-1025.2 566.75,-1160.3 133.86,310 350.51,1122 395.57,1293.1 z m 569.81,-1229 c -7.5,0 -14.53,3.8 -18.59,10.2 -3.86,6.1 -389.06,613.8 -601.73,1229.8 -2.15,6.2 -1.4,13.1 2.06,18.7 3.44,5.6 9.23,9.4 15.76,10.3 l 1021.69,141 c 7.35,1 14.59,-1.7 19.48,-7.2 4.88,-5.5 6.71,-13.1 4.86,-20.2 -11.18,-43.1 -275.66,-1060 -423.64,-1370 -3.45,-7.3 -10.55,-12.1 -18.54,-12.5 -0.46,-0.1 -0.91,-0.1 -1.35,-0.1"
         style="fill:#feb300;fill-opacity:1;fill-rule:nonzero;stroke:none"
         id="path146" />
      <path
         d="m 7199.78,18401.4 1132.28,259.8 c 0,0 -231.49,-1158.9 -493.24,-1638.5 0,0 -506.04,662 -639.04,1378.7"
         style="fill:#ffffff;fill-opacity:1;fill-rule:nonzero;stroke:none"
         id="path148" />
      <path
         d="m 7225.41,18384.6 c 120.23,-613.3 515.49,-1189 610.36,-1320.6 225.86,440.4 428.42,1379.1 467.8,1568.1 z m 613.42,-1384 c -6.83,0 -13.32,3.2 -17.51,8.7 -5.09,6.6 -510.78,674.4 -643.22,1388.1 -2.15,11.6 5.23,22.8 16.75,25.5 l 1132.28,259.8 c 7.31,1.7 14.93,-0.5 20.29,-5.7 5.37,-5.2 7.71,-12.8 6.25,-20.1 -2.31,-11.6 -235.15,-1167.8 -495.49,-1644.8 -3.58,-6.6 -10.23,-10.9 -17.66,-11.4 -0.57,-0.1 -1.13,-0.1 -1.69,-0.1"
         style="fill:#feb300;fill-opacity:1;fill-rule:nonzero;stroke:none"
         id="path150" />
      <path
         d="m 8906.61,18793 c 0,0 838.08,376.8 1039.71,613.3 0,0 90.78,-1362.7 -79.15,-1826.6 0,0 -827.56,836.5 -960.56,1213.3"
         style="fill:#ffffff;fill-opacity:1;fill-rule:nonzero;stroke:none"
         id="path152" />
      <path
         d="m 8934.5,18781.4 c 134.75,-338.4 786.77,-1020.1 923.31,-1160.6 133.92,428.9 83.3,1490.1 69.52,1733.7 -229.11,-218.7 -871.33,-517.6 -992.83,-573.1 z m 932.67,-1223.8 c -5.82,0 -11.48,2.3 -15.67,6.6 -33.93,34.3 -832.57,844.3 -965.67,1221.5 -3.81,10.8 1.3,22.7 11.75,27.4 8.34,3.7 835.85,377.5 1031.97,607.5 5.81,6.8 15.2,9.4 23.7,6.6 8.51,-2.8 14.46,-10.5 15.05,-19.5 3.73,-55.8 89.2,-1372.6 -80.43,-1835.6 -2.6,-7.1 -8.64,-12.4 -16.01,-14 -1.56,-0.3 -3.13,-0.5 -4.69,-0.5"
         style="fill:#feb300;fill-opacity:1;fill-rule:nonzero;stroke:none"
         id="path154" />
      <path
         d="m 10866.7,20810.2 c 0,0 -18.5,-715.2 -474.9,-1130.5 0,0 589.1,-339 948.5,-328.4 0,0 -142.5,361 -208.1,626.5 -65.7,265.5 -160,780.6 -265.5,832.4"
         style="fill:#ffffff;fill-opacity:1;fill-rule:nonzero;stroke:none"
         id="path156" />
      <path
         d="m 10428.9,19684.2 c 113.6,-62.2 571.8,-303 879.2,-310.9 -35.5,92.5 -143.1,379.8 -197.3,599.2 -12.8,51.7 -26.7,112.9 -41.4,177.7 -47.6,210.1 -116.6,514 -183.7,611.7 -13.7,-165.1 -86.5,-721.8 -456.8,-1077.7 z m 894.5,-355.2 c -362.2,0 -918.7,317.8 -942.6,331.6 -6.1,3.5 -10.2,9.7 -10.9,16.7 -0.8,7 1.8,13.9 7.1,18.7 444.3,404.3 467.5,1107.7 467.7,1114.7 0.2,7.5 4.2,14.4 10.6,18.3 6.4,3.9 14.4,4.3 21.1,1 87.6,-43 155.9,-316.7 236,-670 14.7,-64.6 28.5,-125.6 41.2,-176.9 64.5,-261 205.7,-620.1 207.2,-623.7 2.6,-6.7 1.8,-14.2 -2.1,-20.2 -4,-6 -10.6,-9.7 -17.8,-9.9 -5.8,-0.2 -11.7,-0.3 -17.5,-0.3"
         style="fill:#feb300;fill-opacity:1;fill-rule:nonzero;stroke:none"
         id="path158" />
      <path
         d="m 14216.8,4983 c -10.3,0 -19.5,7.2 -21.6,17.7 -2.4,11.9 5.3,23.5 17.2,26 241.2,49 481.7,115.9 714.7,198.7 1502.6,534.1 2677,1707.5 3306.6,3304.2 4.5,11.4 17.3,16.9 28.6,12.5 11.3,-4.5 16.8,-17.3 12.4,-28.6 -634.4,-1608.7 -1818,-2791.2 -3332.9,-3329.6 -234.9,-83.5 -477.4,-151 -720.6,-200.4 -1.5,-0.3 -2.9,-0.5 -4.4,-0.5"
         style="fill:#feb300;fill-opacity:1;fill-rule:nonzero;stroke:none"
         id="path160" />
      <path
         d="m 13379.1,3888.9 c -12.1,0 -22,9.8 -22.1,21.9 -0.1,12.2 9.7,22.1 21.9,22.2 660.8,5.2 2258.4,670.3 2273.3,677 11.1,5 24.1,0 29.1,-11.1 5,-11.1 0.1,-24.1 -11,-29.1 -15,-6.7 -1622.4,-675.7 -2291.1,-680.9 h -0.1"
         style="fill:#feb300;fill-opacity:1;fill-rule:nonzero;stroke:none"
         id="path162" />
      <path
         d="m 15860.6,4667 c -8.1,0 -15.9,4.5 -19.7,12.2 -5.5,10.8 -1.1,24.1 9.8,29.6 775.4,389.9 1449.3,954.8 2003.1,1678.9 7.4,9.6 21.3,11.5 30.9,4.1 9.7,-7.4 11.5,-21.2 4.2,-30.9 -557.9,-729.4 -1237,-1298.5 -2018.4,-1691.5 -3.2,-1.6 -6.6,-2.4 -9.9,-2.4"
         style="fill:#feb300;fill-opacity:1;fill-rule:nonzero;stroke:none"
         id="path164" />
    </g>
  </g>
</svg>
